# Original OUTLAND Verda starter kit; metres; Y-up; front -Z; origin ground centre
mtllib palette.mtl
o bush_scrub_lod2
usemtl verda_palette
s off
v 0.000000 0.640000 0.000000
v 0.214093 0.480000 0.477711
v 0.692820 0.480000 0.000000
v 0.000000 0.000000 0.000000
v 0.692820 0.160000 0.000000
v 0.214093 0.160000 0.477711
v 0.000000 0.640000 0.000000
v -0.560503 0.480000 0.295241
v 0.214093 0.480000 0.477711
v 0.000000 0.000000 0.000000
v 0.214093 0.160000 0.477711
v -0.560503 0.160000 0.295241
v 0.000000 0.640000 0.000000
v -0.560503 0.480000 -0.295241
v -0.560503 0.480000 0.295241
v 0.000000 0.000000 0.000000
v -0.560503 0.160000 0.295241
v -0.560503 0.160000 -0.295241
v 0.000000 0.640000 0.000000
v 0.214093 0.480000 -0.477711
v -0.560503 0.480000 -0.295241
v 0.000000 0.000000 0.000000
v -0.560503 0.160000 -0.295241
v 0.214093 0.160000 -0.477711
v 0.000000 0.640000 0.000000
v 0.692820 0.480000 0.000000
v 0.214093 0.480000 -0.477711
v 0.000000 0.000000 0.000000
v 0.214093 0.160000 -0.477711
v 0.692820 0.160000 0.000000
v 0.692820 0.480000 0.000000
v 0.214093 0.480000 0.477711
v 0.214093 0.160000 0.477711
v 0.692820 0.480000 0.000000
v 0.214093 0.160000 0.477711
v 0.692820 0.160000 0.000000
v 0.214093 0.480000 0.477711
v -0.560503 0.480000 0.295241
v -0.560503 0.160000 0.295241
v 0.214093 0.480000 0.477711
v -0.560503 0.160000 0.295241
v 0.214093 0.160000 0.477711
v -0.560503 0.480000 0.295241
v -0.560503 0.480000 -0.295241
v -0.560503 0.160000 -0.295241
v -0.560503 0.480000 0.295241
v -0.560503 0.160000 -0.295241
v -0.560503 0.160000 0.295241
v -0.560503 0.480000 -0.295241
v 0.214093 0.480000 -0.477711
v 0.214093 0.160000 -0.477711
v -0.560503 0.480000 -0.295241
v 0.214093 0.160000 -0.477711
v -0.560503 0.160000 -0.295241
v 0.214093 0.480000 -0.477711
v 0.692820 0.480000 0.000000
v 0.692820 0.160000 0.000000
v 0.214093 0.480000 -0.477711
v 0.692820 0.160000 0.000000
v 0.214093 0.160000 -0.477711
vt 0.375000 0.875000
vt 0.375000 0.875000
vt 0.375000 0.875000
vt 0.375000 0.875000
vt 0.375000 0.875000
vt 0.375000 0.875000
vt 0.375000 0.875000
vt 0.375000 0.875000
vt 0.375000 0.875000
vt 0.375000 0.875000
vt 0.375000 0.875000
vt 0.375000 0.875000
vt 0.375000 0.875000
vt 0.375000 0.875000
vt 0.375000 0.875000
vt 0.375000 0.875000
vt 0.375000 0.875000
vt 0.375000 0.875000
vt 0.375000 0.875000
vt 0.375000 0.875000
vt 0.375000 0.875000
vt 0.375000 0.875000
vt 0.375000 0.875000
vt 0.375000 0.875000
vt 0.375000 0.875000
vt 0.375000 0.875000
vt 0.375000 0.875000
vt 0.375000 0.875000
vt 0.375000 0.875000
vt 0.375000 0.875000
vt 0.375000 0.875000
vt 0.375000 0.875000
vt 0.375000 0.875000
vt 0.375000 0.875000
vt 0.375000 0.875000
vt 0.375000 0.875000
vt 0.375000 0.875000
vt 0.375000 0.875000
vt 0.375000 0.875000
vt 0.375000 0.875000
vt 0.375000 0.875000
vt 0.375000 0.875000
vt 0.375000 0.875000
vt 0.375000 0.875000
vt 0.375000 0.875000
vt 0.375000 0.875000
vt 0.375000 0.875000
vt 0.375000 0.875000
vt 0.375000 0.875000
vt 0.375000 0.875000
vt 0.375000 0.875000
vt 0.375000 0.875000
vt 0.375000 0.875000
vt 0.375000 0.875000
vt 0.375000 0.875000
vt 0.375000 0.875000
vt 0.375000 0.875000
vt 0.375000 0.875000
vt 0.375000 0.875000
vt 0.375000 0.875000
vn 0.219506 0.950489 0.219973
vn 0.219506 -0.950489 0.219973
vn -0.082329 0.933315 0.349493
vn -0.082329 -0.933315 0.349493
vn -0.274493 0.961589 0.000000
vn -0.274493 -0.961589 0.000000
vn -0.082329 0.933315 -0.349493
vn -0.082329 -0.933315 -0.349493
vn 0.219506 0.950489 -0.219973
vn 0.219506 -0.950489 -0.219973
vn 0.706355 0.000000 0.707858
vn 0.706355 0.000000 0.707858
vn -0.229291 0.000000 0.973358
vn -0.229291 -0.000000 0.973358
vn -1.000000 0.000000 0.000000
vn -1.000000 0.000000 0.000000
vn -0.229291 0.000000 -0.973358
vn -0.229291 0.000000 -0.973358
vn 0.706355 0.000000 -0.707858
vn 0.706355 0.000000 -0.707858
f 1/1/1 2/2/1 3/3/1
f 4/4/2 5/5/2 6/6/2
f 7/7/3 8/8/3 9/9/3
f 10/10/4 11/11/4 12/12/4
f 13/13/5 14/14/5 15/15/5
f 16/16/6 17/17/6 18/18/6
f 19/19/7 20/20/7 21/21/7
f 22/22/8 23/23/8 24/24/8
f 25/25/9 26/26/9 27/27/9
f 28/28/10 29/29/10 30/30/10
f 31/31/11 32/32/11 33/33/11
f 34/34/12 35/35/12 36/36/12
f 37/37/13 38/38/13 39/39/13
f 40/40/14 41/41/14 42/42/14
f 43/43/15 44/44/15 45/45/15
f 46/46/16 47/47/16 48/48/16
f 49/49/17 50/50/17 51/51/17
f 52/52/18 53/53/18 54/54/18
f 55/55/19 56/56/19 57/57/19
f 58/58/20 59/59/20 60/60/20
