# Original OUTLAND Verda starter kit; metres; Y-up; front -Z; origin ground centre
mtllib palette.mtl
o grass_verge_lod0
usemtl verda_palette
s off
v -0.154496 0.000000 0.000942
v -0.074496 0.000000 0.000942
v -0.126988 0.463093 0.040942
v -0.126988 0.463093 0.040942
v -0.074496 0.000000 0.000942
v -0.154496 0.000000 0.000942
v 0.005103 0.000000 -0.005617
v 0.085103 0.000000 -0.005617
v -0.050183 0.446444 0.034383
v -0.050183 0.446444 0.034383
v 0.085103 0.000000 -0.005617
v 0.005103 0.000000 -0.005617
v -0.242595 0.000000 -0.107755
v -0.162595 0.000000 -0.107755
v -0.354464 0.540734 -0.067755
v -0.354464 0.540734 -0.067755
v -0.162595 0.000000 -0.107755
v -0.242595 0.000000 -0.107755
v -0.116863 0.000000 -0.034162
v -0.036863 0.000000 -0.034162
v -0.098134 0.459102 0.005838
v -0.098134 0.459102 0.005838
v -0.036863 0.000000 -0.034162
v -0.116863 0.000000 -0.034162
v 0.144813 0.000000 0.192403
v 0.224813 0.000000 0.192403
v 0.089607 0.464735 0.232403
v 0.089607 0.464735 0.232403
v 0.224813 0.000000 0.192403
v 0.144813 0.000000 0.192403
v 0.155026 0.000000 0.156489
v 0.235026 0.000000 0.156489
v 0.290375 0.427130 0.196489
v 0.290375 0.427130 0.196489
v 0.235026 0.000000 0.156489
v 0.155026 0.000000 0.156489
v 0.159885 0.000000 0.198405
v 0.239885 0.000000 0.198405
v 0.109422 0.342435 0.238405
v 0.109422 0.342435 0.238405
v 0.239885 0.000000 0.198405
v 0.159885 0.000000 0.198405
v 0.117424 0.000000 -0.100800
v 0.197424 0.000000 -0.100800
v 0.013082 0.358768 -0.060800
v 0.013082 0.358768 -0.060800
v 0.197424 0.000000 -0.100800
v 0.117424 0.000000 -0.100800
v 0.096348 0.000000 -0.115763
v 0.176348 0.000000 -0.115763
v 0.172639 0.321228 -0.075763
v 0.172639 0.321228 -0.075763
v 0.176348 0.000000 -0.115763
v 0.096348 0.000000 -0.115763
vt 0.625000 0.875000
vt 0.625000 0.875000
vt 0.625000 0.875000
vt 0.625000 0.875000
vt 0.625000 0.875000
vt 0.625000 0.875000
vt 0.125000 0.875000
vt 0.125000 0.875000
vt 0.125000 0.875000
vt 0.125000 0.875000
vt 0.125000 0.875000
vt 0.125000 0.875000
vt 0.125000 0.875000
vt 0.125000 0.875000
vt 0.125000 0.875000
vt 0.125000 0.875000
vt 0.125000 0.875000
vt 0.125000 0.875000
vt 0.625000 0.875000
vt 0.625000 0.875000
vt 0.625000 0.875000
vt 0.625000 0.875000
vt 0.625000 0.875000
vt 0.625000 0.875000
vt 0.125000 0.875000
vt 0.125000 0.875000
vt 0.125000 0.875000
vt 0.125000 0.875000
vt 0.125000 0.875000
vt 0.125000 0.875000
vt 0.125000 0.875000
vt 0.125000 0.875000
vt 0.125000 0.875000
vt 0.125000 0.875000
vt 0.125000 0.875000
vt 0.125000 0.875000
vt 0.625000 0.875000
vt 0.625000 0.875000
vt 0.625000 0.875000
vt 0.625000 0.875000
vt 0.625000 0.875000
vt 0.625000 0.875000
vt 0.125000 0.875000
vt 0.125000 0.875000
vt 0.125000 0.875000
vt 0.125000 0.875000
vt 0.125000 0.875000
vt 0.125000 0.875000
vt 0.125000 0.875000
vt 0.125000 0.875000
vt 0.125000 0.875000
vt 0.125000 0.875000
vt 0.125000 0.875000
vt 0.125000 0.875000
vn 0.000000 -0.086055 0.996290
vn 0.000000 0.086055 -0.996290
vn 0.000000 -0.089239 0.996010
vn 0.000000 0.089239 -0.996010
vn 0.000000 -0.073772 0.997275
vn 0.000000 0.073772 -0.997275
vn 0.000000 -0.086798 0.996226
vn 0.000000 0.086798 -0.996226
vn 0.000000 -0.085754 0.996316
vn 0.000000 0.085754 -0.996316
vn 0.000000 -0.093240 0.995644
vn 0.000000 0.093240 -0.995644
vn 0.000000 -0.116022 0.993247
vn 0.000000 0.116022 -0.993247
vn 0.000000 -0.110806 0.993842
vn 0.000000 0.110806 -0.993842
vn 0.000000 -0.123568 0.992336
vn 0.000000 0.123568 -0.992336
f 1/1/1 2/2/1 3/3/1
f 4/4/2 5/5/2 6/6/2
f 7/7/3 8/8/3 9/9/3
f 10/10/4 11/11/4 12/12/4
f 13/13/5 14/14/5 15/15/5
f 16/16/6 17/17/6 18/18/6
f 19/19/7 20/20/7 21/21/7
f 22/22/8 23/23/8 24/24/8
f 25/25/9 26/26/9 27/27/9
f 28/28/10 29/29/10 30/30/10
f 31/31/11 32/32/11 33/33/11
f 34/34/12 35/35/12 36/36/12
f 37/37/13 38/38/13 39/39/13
f 40/40/14 41/41/14 42/42/14
f 43/43/15 44/44/15 45/45/15
f 46/46/16 47/47/16 48/48/16
f 49/49/17 50/50/17 51/51/17
f 52/52/18 53/53/18 54/54/18
