# Original OUTLAND Verda starter kit; metres; Y-up; front -Z; origin ground centre
mtllib palette.mtl
o grass_field_lod0
usemtl verda_palette
s off
v -0.293615 0.000000 -0.170545
v -0.213615 0.000000 -0.170545
v -0.194779 0.401421 -0.130545
v -0.194779 0.401421 -0.130545
v -0.213615 0.000000 -0.170545
v -0.293615 0.000000 -0.170545
v -0.227881 0.000000 -0.170525
v -0.147881 0.000000 -0.170525
v -0.105451 0.343449 -0.130525
v -0.105451 0.343449 -0.130525
v -0.147881 0.000000 -0.170525
v -0.227881 0.000000 -0.170525
v -0.223351 0.000000 0.105888
v -0.143351 0.000000 0.105888
v -0.299646 0.498380 0.145888
v -0.299646 0.498380 0.145888
v -0.143351 0.000000 0.105888
v -0.223351 0.000000 0.105888
v -0.021456 0.000000 -0.022990
v 0.058544 0.000000 -0.022990
v 0.177374 0.408525 0.017010
v 0.177374 0.408525 0.017010
v 0.058544 0.000000 -0.022990
v -0.021456 0.000000 -0.022990
v -0.251582 0.000000 -0.211039
v -0.171582 0.000000 -0.211039
v -0.242639 0.598329 -0.171039
v -0.242639 0.598329 -0.171039
v -0.171582 0.000000 -0.211039
v -0.251582 0.000000 -0.211039
v -0.196781 0.000000 -0.074664
v -0.116781 0.000000 -0.074664
v -0.011145 0.391362 -0.034664
v -0.011145 0.391362 -0.034664
v -0.116781 0.000000 -0.074664
v -0.196781 0.000000 -0.074664
v -0.190627 0.000000 -0.124553
v -0.110627 0.000000 -0.124553
v -0.135465 0.470564 -0.084553
v -0.135465 0.470564 -0.084553
v -0.110627 0.000000 -0.124553
v -0.190627 0.000000 -0.124553
v 0.195946 0.000000 0.149020
v 0.275946 0.000000 0.149020
v 0.141181 0.387981 0.189020
v 0.141181 0.387981 0.189020
v 0.275946 0.000000 0.149020
v 0.195946 0.000000 0.149020
v 0.134935 0.000000 0.215150
v 0.214935 0.000000 0.215150
v 0.250150 0.270933 0.255150
v 0.250150 0.270933 0.255150
v 0.214935 0.000000 0.215150
v 0.134935 0.000000 0.215150
vt 0.625000 0.875000
vt 0.625000 0.875000
vt 0.625000 0.875000
vt 0.625000 0.875000
vt 0.625000 0.875000
vt 0.625000 0.875000
vt 0.125000 0.875000
vt 0.125000 0.875000
vt 0.125000 0.875000
vt 0.125000 0.875000
vt 0.125000 0.875000
vt 0.125000 0.875000
vt 0.125000 0.875000
vt 0.125000 0.875000
vt 0.125000 0.875000
vt 0.125000 0.875000
vt 0.125000 0.875000
vt 0.125000 0.875000
vt 0.625000 0.875000
vt 0.625000 0.875000
vt 0.625000 0.875000
vt 0.625000 0.875000
vt 0.625000 0.875000
vt 0.625000 0.875000
vt 0.125000 0.875000
vt 0.125000 0.875000
vt 0.125000 0.875000
vt 0.125000 0.875000
vt 0.125000 0.875000
vt 0.125000 0.875000
vt 0.125000 0.875000
vt 0.125000 0.875000
vt 0.125000 0.875000
vt 0.125000 0.875000
vt 0.125000 0.875000
vt 0.125000 0.875000
vt 0.625000 0.875000
vt 0.625000 0.875000
vt 0.625000 0.875000
vt 0.625000 0.875000
vt 0.625000 0.875000
vt 0.625000 0.875000
vt 0.125000 0.875000
vt 0.125000 0.875000
vt 0.125000 0.875000
vt 0.125000 0.875000
vt 0.125000 0.875000
vt 0.125000 0.875000
vt 0.125000 0.875000
vt 0.125000 0.875000
vt 0.125000 0.875000
vt 0.125000 0.875000
vt 0.125000 0.875000
vt 0.125000 0.875000
vn 0.000000 -0.099155 0.995072
vn 0.000000 0.099155 -0.995072
vn 0.000000 -0.115684 0.993286
vn 0.000000 0.115684 -0.993286
vn 0.000000 -0.080003 0.996795
vn 0.000000 0.080003 -0.996795
vn 0.000000 -0.097447 0.995241
vn 0.000000 0.097447 -0.995241
vn 0.000000 -0.066704 0.997773
vn 0.000000 0.066704 -0.997773
vn 0.000000 -0.101677 0.994817
vn 0.000000 0.101677 -0.994817
vn 0.000000 -0.084699 0.996407
vn 0.000000 0.084699 -0.996407
vn 0.000000 -0.102554 0.994727
vn 0.000000 0.102554 -0.994727
vn 0.000000 -0.146055 0.989277
vn 0.000000 0.146055 -0.989277
f 1/1/1 2/2/1 3/3/1
f 4/4/2 5/5/2 6/6/2
f 7/7/3 8/8/3 9/9/3
f 10/10/4 11/11/4 12/12/4
f 13/13/5 14/14/5 15/15/5
f 16/16/6 17/17/6 18/18/6
f 19/19/7 20/20/7 21/21/7
f 22/22/8 23/23/8 24/24/8
f 25/25/9 26/26/9 27/27/9
f 28/28/10 29/29/10 30/30/10
f 31/31/11 32/32/11 33/33/11
f 34/34/12 35/35/12 36/36/12
f 37/37/13 38/38/13 39/39/13
f 40/40/14 41/41/14 42/42/14
f 43/43/15 44/44/15 45/45/15
f 46/46/16 47/47/16 48/48/16
f 49/49/17 50/50/17 51/51/17
f 52/52/18 53/53/18 54/54/18
