# Original OUTLAND Verda starter kit; metres; Y-up; front -Z; origin ground centre
mtllib palette.mtl
o grass_verge_lod1
usemtl verda_palette
s off
v -0.154496 0.000000 0.000942
v -0.074496 0.000000 0.000942
v -0.126988 0.463093 0.040942
v -0.126988 0.463093 0.040942
v -0.074496 0.000000 0.000942
v -0.154496 0.000000 0.000942
v 0.005103 0.000000 -0.005617
v 0.085103 0.000000 -0.005617
v -0.050183 0.446444 0.034383
v -0.050183 0.446444 0.034383
v 0.085103 0.000000 -0.005617
v 0.005103 0.000000 -0.005617
v -0.242595 0.000000 -0.107755
v -0.162595 0.000000 -0.107755
v -0.354464 0.540734 -0.067755
v -0.354464 0.540734 -0.067755
v -0.162595 0.000000 -0.107755
v -0.242595 0.000000 -0.107755
v -0.116863 0.000000 -0.034162
v -0.036863 0.000000 -0.034162
v -0.098134 0.459102 0.005838
v -0.098134 0.459102 0.005838
v -0.036863 0.000000 -0.034162
v -0.116863 0.000000 -0.034162
v 0.144813 0.000000 0.192403
v 0.224813 0.000000 0.192403
v 0.089607 0.464735 0.232403
v 0.089607 0.464735 0.232403
v 0.224813 0.000000 0.192403
v 0.144813 0.000000 0.192403
vt 0.625000 0.875000
vt 0.625000 0.875000
vt 0.625000 0.875000
vt 0.625000 0.875000
vt 0.625000 0.875000
vt 0.625000 0.875000
vt 0.125000 0.875000
vt 0.125000 0.875000
vt 0.125000 0.875000
vt 0.125000 0.875000
vt 0.125000 0.875000
vt 0.125000 0.875000
vt 0.125000 0.875000
vt 0.125000 0.875000
vt 0.125000 0.875000
vt 0.125000 0.875000
vt 0.125000 0.875000
vt 0.125000 0.875000
vt 0.625000 0.875000
vt 0.625000 0.875000
vt 0.625000 0.875000
vt 0.625000 0.875000
vt 0.625000 0.875000
vt 0.625000 0.875000
vt 0.125000 0.875000
vt 0.125000 0.875000
vt 0.125000 0.875000
vt 0.125000 0.875000
vt 0.125000 0.875000
vt 0.125000 0.875000
vn 0.000000 -0.086055 0.996290
vn 0.000000 0.086055 -0.996290
vn 0.000000 -0.089239 0.996010
vn 0.000000 0.089239 -0.996010
vn 0.000000 -0.073772 0.997275
vn 0.000000 0.073772 -0.997275
vn 0.000000 -0.086798 0.996226
vn 0.000000 0.086798 -0.996226
vn 0.000000 -0.085754 0.996316
vn 0.000000 0.085754 -0.996316
f 1/1/1 2/2/1 3/3/1
f 4/4/2 5/5/2 6/6/2
f 7/7/3 8/8/3 9/9/3
f 10/10/4 11/11/4 12/12/4
f 13/13/5 14/14/5 15/15/5
f 16/16/6 17/17/6 18/18/6
f 19/19/7 20/20/7 21/21/7
f 22/22/8 23/23/8 24/24/8
f 25/25/9 26/26/9 27/27/9
f 28/28/10 29/29/10 30/30/10
