# Original OUTLAND Verda starter kit; metres; Y-up; front -Z; origin ground centre
mtllib palette.mtl
o grass_field_lod2
usemtl verda_palette
s off
v -0.293615 0.000000 -0.170545
v -0.213615 0.000000 -0.170545
v -0.194779 0.401421 -0.130545
v -0.194779 0.401421 -0.130545
v -0.213615 0.000000 -0.170545
v -0.293615 0.000000 -0.170545
v -0.227881 0.000000 -0.170525
v -0.147881 0.000000 -0.170525
v -0.105451 0.343449 -0.130525
v -0.105451 0.343449 -0.130525
v -0.147881 0.000000 -0.170525
v -0.227881 0.000000 -0.170525
vt 0.625000 0.875000
vt 0.625000 0.875000
vt 0.625000 0.875000
vt 0.625000 0.875000
vt 0.625000 0.875000
vt 0.625000 0.875000
vt 0.125000 0.875000
vt 0.125000 0.875000
vt 0.125000 0.875000
vt 0.125000 0.875000
vt 0.125000 0.875000
vt 0.125000 0.875000
vn 0.000000 -0.099155 0.995072
vn 0.000000 0.099155 -0.995072
vn 0.000000 -0.115684 0.993286
vn 0.000000 0.115684 -0.993286
f 1/1/1 2/2/1 3/3/1
f 4/4/2 5/5/2 6/6/2
f 7/7/3 8/8/3 9/9/3
f 10/10/4 11/11/4 12/12/4
