# Original OUTLAND Verda starter kit; metres; Y-up; front -Z; origin ground centre
mtllib palette.mtl
o grass_verge_lod2
usemtl verda_palette
s off
v -0.154496 0.000000 0.000942
v -0.074496 0.000000 0.000942
v -0.126988 0.463093 0.040942
v -0.126988 0.463093 0.040942
v -0.074496 0.000000 0.000942
v -0.154496 0.000000 0.000942
v 0.005103 0.000000 -0.005617
v 0.085103 0.000000 -0.005617
v -0.050183 0.446444 0.034383
v -0.050183 0.446444 0.034383
v 0.085103 0.000000 -0.005617
v 0.005103 0.000000 -0.005617
vt 0.625000 0.875000
vt 0.625000 0.875000
vt 0.625000 0.875000
vt 0.625000 0.875000
vt 0.625000 0.875000
vt 0.625000 0.875000
vt 0.125000 0.875000
vt 0.125000 0.875000
vt 0.125000 0.875000
vt 0.125000 0.875000
vt 0.125000 0.875000
vt 0.125000 0.875000
vn 0.000000 -0.086055 0.996290
vn 0.000000 0.086055 -0.996290
vn 0.000000 -0.089239 0.996010
vn 0.000000 0.089239 -0.996010
f 1/1/1 2/2/1 3/3/1
f 4/4/2 5/5/2 6/6/2
f 7/7/3 8/8/3 9/9/3
f 10/10/4 11/11/4 12/12/4
