# Original OUTLAND Verda starter kit; metres; Y-up; front -Z; origin ground centre
mtllib palette.mtl
o ground_grass_lod1
usemtl verda_palette
s off
v -2.000000 0.000000 -2.000000
v -2.000000 0.000000 2.000000
v 2.000000 0.000000 2.000000
v -2.000000 0.000000 -2.000000
v 2.000000 0.000000 2.000000
v 2.000000 0.000000 -2.000000
vt 0.125000 0.875000
vt 0.125000 0.875000
vt 0.125000 0.875000
vt 0.125000 0.875000
vt 0.125000 0.875000
vt 0.125000 0.875000
vn 0.000000 1.000000 0.000000
vn 0.000000 1.000000 0.000000
f 1/1/1 2/2/1 3/3/1
f 4/4/2 5/5/2 6/6/2
