# Original OUTLAND Verda starter kit; metres; Y-up; front -Z; origin ground centre
mtllib palette.mtl
o rock_boulder_lod2
usemtl verda_palette
s off
v 0.000000 1.900000 0.000000
v 0.359143 1.459963 0.795837
v 1.088243 1.427506 0.000000
v 0.000000 0.000000 0.000000
v 1.135590 0.451719 0.000000
v 0.347477 0.456602 0.769986
v 0.000000 1.900000 0.000000
v -0.972577 1.477496 0.508766
v 0.359143 1.459963 0.795837
v 0.000000 0.000000 0.000000
v 0.347477 0.456602 0.769986
v -0.793847 0.519442 0.415270
v 0.000000 1.900000 0.000000
v -0.831568 1.401017 -0.435002
v -0.972577 1.477496 0.508766
v 0.000000 0.000000 0.000000
v -0.793847 0.519442 0.415270
v -0.776354 0.528929 -0.406119
v 0.000000 1.900000 0.000000
v 0.355885 1.455336 -0.788617
v -0.831568 1.401017 -0.435002
v 0.000000 0.000000 0.000000
v -0.776354 0.528929 -0.406119
v 0.325221 0.488204 -0.720669
v 0.000000 1.900000 0.000000
v 1.088243 1.427506 0.000000
v 0.355885 1.455336 -0.788617
v 0.000000 0.000000 0.000000
v 0.325221 0.488204 -0.720669
v 1.135590 0.451719 0.000000
v 1.088243 1.427506 0.000000
v 0.359143 1.459963 0.795837
v 0.347477 0.456602 0.769986
v 1.088243 1.427506 0.000000
v 0.347477 0.456602 0.769986
v 1.135590 0.451719 0.000000
v 0.359143 1.459963 0.795837
v -0.972577 1.477496 0.508766
v -0.793847 0.519442 0.415270
v 0.359143 1.459963 0.795837
v -0.793847 0.519442 0.415270
v 0.347477 0.456602 0.769986
v -0.972577 1.477496 0.508766
v -0.831568 1.401017 -0.435002
v -0.776354 0.528929 -0.406119
v -0.972577 1.477496 0.508766
v -0.776354 0.528929 -0.406119
v -0.793847 0.519442 0.415270
v -0.831568 1.401017 -0.435002
v 0.355885 1.455336 -0.788617
v 0.325221 0.488204 -0.720669
v -0.831568 1.401017 -0.435002
v 0.325221 0.488204 -0.720669
v -0.776354 0.528929 -0.406119
v 0.355885 1.455336 -0.788617
v 1.088243 1.427506 0.000000
v 1.135590 0.451719 0.000000
v 0.355885 1.455336 -0.788617
v 1.135590 0.451719 0.000000
v 0.325221 0.488204 -0.720669
vt 0.625000 0.625000
vt 0.625000 0.625000
vt 0.625000 0.625000
vt 0.625000 0.625000
vt 0.625000 0.625000
vt 0.625000 0.625000
vt 0.625000 0.625000
vt 0.625000 0.625000
vt 0.625000 0.625000
vt 0.625000 0.625000
vt 0.625000 0.625000
vt 0.625000 0.625000
vt 0.625000 0.625000
vt 0.625000 0.625000
vt 0.625000 0.625000
vt 0.625000 0.625000
vt 0.625000 0.625000
vt 0.625000 0.625000
vt 0.625000 0.625000
vt 0.625000 0.625000
vt 0.625000 0.625000
vt 0.625000 0.625000
vt 0.625000 0.625000
vt 0.625000 0.625000
vt 0.625000 0.625000
vt 0.625000 0.625000
vt 0.625000 0.625000
vt 0.625000 0.625000
vt 0.625000 0.625000
vt 0.625000 0.625000
vt 0.625000 0.625000
vt 0.625000 0.625000
vt 0.625000 0.625000
vt 0.625000 0.625000
vt 0.625000 0.625000
vt 0.625000 0.625000
vt 0.625000 0.625000
vt 0.625000 0.625000
vt 0.625000 0.625000
vt 0.625000 0.625000
vt 0.625000 0.625000
vt 0.625000 0.625000
vt 0.625000 0.625000
vt 0.625000 0.625000
vt 0.625000 0.625000
vt 0.625000 0.625000
vt 0.625000 0.625000
vt 0.625000 0.625000
vt 0.625000 0.625000
vt 0.625000 0.625000
vt 0.625000 0.625000
vt 0.625000 0.625000
vt 0.625000 0.625000
vt 0.625000 0.625000
vt 0.625000 0.625000
vt 0.625000 0.625000
vt 0.625000 0.625000
vt 0.625000 0.625000
vt 0.625000 0.625000
vt 0.625000 0.625000
vn 0.378486 0.871726 0.311195
vn 0.345025 -0.867369 0.358648
vn -0.099946 0.850966 0.515623
vn -0.220517 -0.792068 0.569211
vn -0.454941 0.879567 -0.139250
vn -0.555235 -0.831418 -0.021428
vn -0.200408 0.811943 -0.548256
vn -0.202566 -0.765878 -0.610244
vn 0.377352 0.869113 -0.319761
vn 0.335452 -0.843302 -0.419898
vn 0.736570 -0.025977 0.675862
vn 0.698539 0.033894 0.714769
vn -0.210513 -0.133777 0.968395
vn -0.297785 -0.021127 0.954399
vn -0.987566 -0.067232 -0.142105
vn -0.983182 -0.181170 -0.023031
vn -0.282470 -0.058316 -0.957502
vn -0.275921 -0.049261 -0.959917
vn 0.732923 0.035562 -0.679382
vn 0.660898 -0.073428 -0.746875
f 1/1/1 2/2/1 3/3/1
f 4/4/2 5/5/2 6/6/2
f 7/7/3 8/8/3 9/9/3
f 10/10/4 11/11/4 12/12/4
f 13/13/5 14/14/5 15/15/5
f 16/16/6 17/17/6 18/18/6
f 19/19/7 20/20/7 21/21/7
f 22/22/8 23/23/8 24/24/8
f 25/25/9 26/26/9 27/27/9
f 28/28/10 29/29/10 30/30/10
f 31/31/11 32/32/11 33/33/11
f 34/34/12 35/35/12 36/36/12
f 37/37/13 38/38/13 39/39/13
f 40/40/14 41/41/14 42/42/14
f 43/43/15 44/44/15 45/45/15
f 46/46/16 47/47/16 48/48/16
f 49/49/17 50/50/17 51/51/17
f 52/52/18 53/53/18 54/54/18
f 55/55/19 56/56/19 57/57/19
f 58/58/20 59/59/20 60/60/20
