# Original OUTLAND Verda starter kit; metres; Y-up; front -Z; origin ground centre
mtllib palette.mtl
o rock_field_lod2
usemtl verda_palette
s off
v 0.000000 0.680000 0.000000
v 0.158023 0.522513 0.371391
v 0.478827 0.510897 0.000000
v 0.000000 0.000000 0.000000
v 0.499659 0.161668 0.000000
v 0.152890 0.163416 0.359327
v 0.000000 0.680000 0.000000
v -0.427934 0.528788 0.237424
v 0.158023 0.522513 0.371391
v 0.000000 0.000000 0.000000
v 0.152890 0.163416 0.359327
v -0.349293 0.185905 0.193793
v 0.000000 0.680000 0.000000
v -0.365890 0.501417 -0.203001
v -0.427934 0.528788 0.237424
v 0.000000 0.000000 0.000000
v -0.349293 0.185905 0.193793
v -0.341596 0.189301 -0.189522
v 0.000000 0.680000 0.000000
v 0.156589 0.520857 -0.368021
v -0.365890 0.501417 -0.203001
v 0.000000 0.000000 0.000000
v -0.341596 0.189301 -0.189522
v 0.143097 0.174726 -0.336312
v 0.000000 0.680000 0.000000
v 0.478827 0.510897 0.000000
v 0.156589 0.520857 -0.368021
v 0.000000 0.000000 0.000000
v 0.143097 0.174726 -0.336312
v 0.499659 0.161668 0.000000
v 0.478827 0.510897 0.000000
v 0.158023 0.522513 0.371391
v 0.152890 0.163416 0.359327
v 0.478827 0.510897 0.000000
v 0.152890 0.163416 0.359327
v 0.499659 0.161668 0.000000
v 0.158023 0.522513 0.371391
v -0.427934 0.528788 0.237424
v -0.349293 0.185905 0.193793
v 0.158023 0.522513 0.371391
v -0.349293 0.185905 0.193793
v 0.152890 0.163416 0.359327
v -0.427934 0.528788 0.237424
v -0.365890 0.501417 -0.203001
v -0.341596 0.189301 -0.189522
v -0.427934 0.528788 0.237424
v -0.341596 0.189301 -0.189522
v -0.349293 0.185905 0.193793
v -0.365890 0.501417 -0.203001
v 0.156589 0.520857 -0.368021
v 0.143097 0.174726 -0.336312
v -0.365890 0.501417 -0.203001
v 0.143097 0.174726 -0.336312
v -0.341596 0.189301 -0.189522
v 0.156589 0.520857 -0.368021
v 0.478827 0.510897 0.000000
v 0.499659 0.161668 0.000000
v 0.156589 0.520857 -0.368021
v 0.499659 0.161668 0.000000
v 0.143097 0.174726 -0.336312
vt 0.625000 0.625000
vt 0.625000 0.625000
vt 0.625000 0.625000
vt 0.625000 0.625000
vt 0.625000 0.625000
vt 0.625000 0.625000
vt 0.625000 0.625000
vt 0.625000 0.625000
vt 0.625000 0.625000
vt 0.625000 0.625000
vt 0.625000 0.625000
vt 0.625000 0.625000
vt 0.625000 0.625000
vt 0.625000 0.625000
vt 0.625000 0.625000
vt 0.625000 0.625000
vt 0.625000 0.625000
vt 0.625000 0.625000
vt 0.625000 0.625000
vt 0.625000 0.625000
vt 0.625000 0.625000
vt 0.625000 0.625000
vt 0.625000 0.625000
vt 0.625000 0.625000
vt 0.625000 0.625000
vt 0.625000 0.625000
vt 0.625000 0.625000
vt 0.625000 0.625000
vt 0.625000 0.625000
vt 0.625000 0.625000
vt 0.625000 0.625000
vt 0.625000 0.625000
vt 0.625000 0.625000
vt 0.625000 0.625000
vt 0.625000 0.625000
vt 0.625000 0.625000
vt 0.625000 0.625000
vt 0.625000 0.625000
vt 0.625000 0.625000
vt 0.625000 0.625000
vt 0.625000 0.625000
vt 0.625000 0.625000
vt 0.625000 0.625000
vt 0.625000 0.625000
vt 0.625000 0.625000
vt 0.625000 0.625000
vt 0.625000 0.625000
vt 0.625000 0.625000
vt 0.625000 0.625000
vt 0.625000 0.625000
vt 0.625000 0.625000
vt 0.625000 0.625000
vt 0.625000 0.625000
vt 0.625000 0.625000
vt 0.625000 0.625000
vt 0.625000 0.625000
vt 0.625000 0.625000
vt 0.625000 0.625000
vt 0.625000 0.625000
vt 0.625000 0.625000
vn 0.322434 0.912993 0.249959
vn 0.294721 -0.910881 0.288852
vn -0.086313 0.903483 0.419844
vn -0.194539 -0.859063 0.473461
vn -0.385388 0.916028 -0.111220
vn -0.477253 -0.878594 -0.017366
vn -0.175513 0.874212 -0.452713
vn -0.180557 -0.839272 -0.512856
vn 0.321809 0.911225 -0.257113
vn 0.289338 -0.894245 -0.341481
vn 0.755851 -0.032773 0.653923
vn 0.719011 0.042891 0.693674
vn -0.221281 -0.172880 0.959764
vn -0.314049 -0.027393 0.949011
vn -0.987531 -0.082653 -0.133980
vn -0.975060 -0.220893 -0.021536
vn -0.297757 -0.075575 -0.951646
vn -0.291017 -0.063876 -0.954583
vn 0.752199 0.044870 -0.657407
vn 0.681364 -0.093069 -0.726004
f 1/1/1 2/2/1 3/3/1
f 4/4/2 5/5/2 6/6/2
f 7/7/3 8/8/3 9/9/3
f 10/10/4 11/11/4 12/12/4
f 13/13/5 14/14/5 15/15/5
f 16/16/6 17/17/6 18/18/6
f 19/19/7 20/20/7 21/21/7
f 22/22/8 23/23/8 24/24/8
f 25/25/9 26/26/9 27/27/9
f 28/28/10 29/29/10 30/30/10
f 31/31/11 32/32/11 33/33/11
f 34/34/12 35/35/12 36/36/12
f 37/37/13 38/38/13 39/39/13
f 40/40/14 41/41/14 42/42/14
f 43/43/15 44/44/15 45/45/15
f 46/46/16 47/47/16 48/48/16
f 49/49/17 50/50/17 51/51/17
f 52/52/18 53/53/18 54/54/18
f 55/55/19 56/56/19 57/57/19
f 58/58/20 59/59/20 60/60/20
