# Original OUTLAND Verda starter kit; metres; Y-up; front -Z; origin ground centre
mtllib palette.mtl
o rock_boulder_lod1
usemtl verda_palette
s off
v 0.000000 1.900000 0.000000
v 0.474471 1.671196 0.591702
v 0.888547 1.625296 0.000000
v 0.000000 0.000000 0.000000
v 0.884223 0.277990 0.000000
v 0.422578 0.307682 0.526987
v 0.000000 1.900000 0.000000
v -0.490785 1.695993 0.612046
v 0.474471 1.671196 0.591702
v 0.000000 0.000000 0.000000
v 0.422578 0.307682 0.526987
v -0.478675 0.222413 0.596945
v 0.000000 1.900000 0.000000
v -0.839256 1.587835 0.000000
v -0.490785 1.695993 0.612046
v 0.000000 0.000000 0.000000
v -0.478675 0.222413 0.596945
v -0.978323 0.206474 0.000000
v 0.000000 1.900000 0.000000
v -0.470167 1.664653 -0.586334
v -0.839256 1.587835 0.000000
v 0.000000 0.000000 0.000000
v -0.978323 0.206474 0.000000
v -0.431504 0.294114 -0.538118
v 0.000000 1.900000 0.000000
v 0.463603 1.654676 -0.578148
v -0.470167 1.664653 -0.586334
v 0.000000 0.000000 0.000000
v -0.431504 0.294114 -0.538118
v 0.494810 0.197889 -0.617066
v 0.000000 1.900000 0.000000
v 0.888547 1.625296 0.000000
v 0.463603 1.654676 -0.578148
v 0.000000 0.000000 0.000000
v 0.494810 0.197889 -0.617066
v 0.884223 0.277990 0.000000
v 0.888547 1.625296 0.000000
v 0.474471 1.671196 0.591702
v 0.566524 0.950000 0.706499
v 0.888547 1.625296 0.000000
v 0.566524 0.950000 0.706499
v 1.298415 0.950000 0.000000
v 0.474471 1.671196 0.591702
v -0.490785 1.695993 0.612046
v -0.554041 0.950000 0.690931
v 0.474471 1.671196 0.591702
v -0.554041 0.950000 0.690931
v 0.566524 0.950000 0.706499
v -0.490785 1.695993 0.612046
v -0.839256 1.587835 0.000000
v -1.215251 0.950000 0.000000
v -0.490785 1.695993 0.612046
v -1.215251 0.950000 0.000000
v -0.554041 0.950000 0.690931
v -0.839256 1.587835 0.000000
v -0.470167 1.664653 -0.586334
v -0.661959 0.950000 -0.825514
v -0.839256 1.587835 0.000000
v -0.661959 0.950000 -0.825514
v -1.215251 0.950000 0.000000
v -0.470167 1.664653 -0.586334
v 0.463603 1.654676 -0.578148
v 0.587858 0.950000 -0.733103
v -0.470167 1.664653 -0.586334
v 0.587858 0.950000 -0.733103
v -0.661959 0.950000 -0.825514
v 0.463603 1.654676 -0.578148
v 0.888547 1.625296 0.000000
v 1.298415 0.950000 0.000000
v 0.463603 1.654676 -0.578148
v 1.298415 0.950000 0.000000
v 0.587858 0.950000 -0.733103
v 1.298415 0.950000 0.000000
v 0.566524 0.950000 0.706499
v 0.422578 0.307682 0.526987
v 1.298415 0.950000 0.000000
v 0.422578 0.307682 0.526987
v 0.884223 0.277990 0.000000
v 0.566524 0.950000 0.706499
v -0.554041 0.950000 0.690931
v -0.478675 0.222413 0.596945
v 0.566524 0.950000 0.706499
v -0.478675 0.222413 0.596945
v 0.422578 0.307682 0.526987
v -0.554041 0.950000 0.690931
v -1.215251 0.950000 0.000000
v -0.978323 0.206474 0.000000
v -0.554041 0.950000 0.690931
v -0.978323 0.206474 0.000000
v -0.478675 0.222413 0.596945
v -1.215251 0.950000 0.000000
v -0.661959 0.950000 -0.825514
v -0.431504 0.294114 -0.538118
v -1.215251 0.950000 0.000000
v -0.431504 0.294114 -0.538118
v -0.978323 0.206474 0.000000
v -0.661959 0.950000 -0.825514
v 0.587858 0.950000 -0.733103
v 0.494810 0.197889 -0.617066
v -0.661959 0.950000 -0.825514
v 0.494810 0.197889 -0.617066
v -0.431504 0.294114 -0.538118
v 0.587858 0.950000 -0.733103
v 1.298415 0.950000 0.000000
v 0.884223 0.277990 0.000000
v 0.587858 0.950000 -0.733103
v 0.884223 0.277990 0.000000
v 0.494810 0.197889 -0.617066
vt 0.625000 0.625000
vt 0.625000 0.625000
vt 0.625000 0.625000
vt 0.625000 0.625000
vt 0.625000 0.625000
vt 0.625000 0.625000
vt 0.625000 0.625000
vt 0.625000 0.625000
vt 0.625000 0.625000
vt 0.625000 0.625000
vt 0.625000 0.625000
vt 0.625000 0.625000
vt 0.625000 0.625000
vt 0.625000 0.625000
vt 0.625000 0.625000
vt 0.625000 0.625000
vt 0.625000 0.625000
vt 0.625000 0.625000
vt 0.625000 0.625000
vt 0.625000 0.625000
vt 0.625000 0.625000
vt 0.625000 0.625000
vt 0.625000 0.625000
vt 0.625000 0.625000
vt 0.625000 0.625000
vt 0.625000 0.625000
vt 0.625000 0.625000
vt 0.625000 0.625000
vt 0.625000 0.625000
vt 0.625000 0.625000
vt 0.625000 0.625000
vt 0.625000 0.625000
vt 0.625000 0.625000
vt 0.625000 0.625000
vt 0.625000 0.625000
vt 0.625000 0.625000
vt 0.625000 0.625000
vt 0.625000 0.625000
vt 0.625000 0.625000
vt 0.625000 0.625000
vt 0.625000 0.625000
vt 0.625000 0.625000
vt 0.625000 0.625000
vt 0.625000 0.625000
vt 0.625000 0.625000
vt 0.625000 0.625000
vt 0.625000 0.625000
vt 0.625000 0.625000
vt 0.625000 0.625000
vt 0.625000 0.625000
vt 0.625000 0.625000
vt 0.625000 0.625000
vt 0.625000 0.625000
vt 0.625000 0.625000
vt 0.625000 0.625000
vt 0.625000 0.625000
vt 0.625000 0.625000
vt 0.625000 0.625000
vt 0.625000 0.625000
vt 0.625000 0.625000
vt 0.625000 0.625000
vt 0.625000 0.625000
vt 0.625000 0.625000
vt 0.625000 0.625000
vt 0.625000 0.625000
vt 0.625000 0.625000
vt 0.625000 0.625000
vt 0.625000 0.625000
vt 0.625000 0.625000
vt 0.625000 0.625000
vt 0.625000 0.625000
vt 0.625000 0.625000
vt 0.625000 0.625000
vt 0.625000 0.625000
vt 0.625000 0.625000
vt 0.625000 0.625000
vt 0.625000 0.625000
vt 0.625000 0.625000
vt 0.625000 0.625000
vt 0.625000 0.625000
vt 0.625000 0.625000
vt 0.625000 0.625000
vt 0.625000 0.625000
vt 0.625000 0.625000
vt 0.625000 0.625000
vt 0.625000 0.625000
vt 0.625000 0.625000
vt 0.625000 0.625000
vt 0.625000 0.625000
vt 0.625000 0.625000
vt 0.625000 0.625000
vt 0.625000 0.625000
vt 0.625000 0.625000
vt 0.625000 0.625000
vt 0.625000 0.625000
vt 0.625000 0.625000
vt 0.625000 0.625000
vt 0.625000 0.625000
vt 0.625000 0.625000
vt 0.625000 0.625000
vt 0.625000 0.625000
vt 0.625000 0.625000
vt 0.625000 0.625000
vt 0.625000 0.625000
vt 0.625000 0.625000
vt 0.625000 0.625000
vt 0.625000 0.625000
vt 0.625000 0.625000
vn 0.292805 0.947095 0.131437
vn 0.285938 -0.909505 0.301728
vn 0.031294 0.940425 0.338557
vn 0.118011 -0.895845 0.428410
vn -0.348432 0.936759 0.032842
vn -0.202530 -0.959636 0.195143
vn -0.347003 0.932917 -0.096207
vn -0.193720 -0.917889 -0.346342
vn 0.013221 0.924241 -0.381580
vn -0.128146 -0.909893 -0.394554
vn 0.291259 0.942096 -0.166204
vn 0.299276 -0.951930 -0.065295
vn 0.811060 0.191504 0.552728
vn 0.639981 0.388434 0.662981
vn 0.023608 0.103150 0.994386
vn -0.013723 0.155474 0.987745
vn -0.799644 0.471380 0.371982
vn -0.716039 0.133177 0.685239
vn -0.807191 0.370440 -0.459583
vn -0.746037 0.439779 -0.500023
vn 0.010872 0.216581 -0.976204
vn 0.070352 0.299561 -0.951480
vn 0.732403 0.444529 -0.515733
vn 0.691529 0.269325 -0.670262
vn 0.654143 -0.335984 0.677652
vn 0.672776 -0.414663 0.612721
vn -0.013775 -0.129502 0.991483
vn 0.101219 -0.288755 0.952037
vn -0.704057 -0.224351 0.673773
vn -0.754800 -0.160347 0.636055
vn -0.732191 -0.472300 -0.490743
vn -0.667809 -0.212801 -0.713265
vn 0.072778 -0.160862 -0.984290
vn -0.121156 -0.433790 -0.892831
vn 0.656628 -0.404711 -0.636434
vn 0.842000 -0.182493 -0.507674
f 1/1/1 2/2/1 3/3/1
f 4/4/2 5/5/2 6/6/2
f 7/7/3 8/8/3 9/9/3
f 10/10/4 11/11/4 12/12/4
f 13/13/5 14/14/5 15/15/5
f 16/16/6 17/17/6 18/18/6
f 19/19/7 20/20/7 21/21/7
f 22/22/8 23/23/8 24/24/8
f 25/25/9 26/26/9 27/27/9
f 28/28/10 29/29/10 30/30/10
f 31/31/11 32/32/11 33/33/11
f 34/34/12 35/35/12 36/36/12
f 37/37/13 38/38/13 39/39/13
f 40/40/14 41/41/14 42/42/14
f 43/43/15 44/44/15 45/45/15
f 46/46/16 47/47/16 48/48/16
f 49/49/17 50/50/17 51/51/17
f 52/52/18 53/53/18 54/54/18
f 55/55/19 56/56/19 57/57/19
f 58/58/20 59/59/20 60/60/20
f 61/61/21 62/62/21 63/63/21
f 64/64/22 65/65/22 66/66/22
f 67/67/23 68/68/23 69/69/23
f 70/70/24 71/71/24 72/72/24
f 73/73/25 74/74/25 75/75/25
f 76/76/26 77/77/26 78/78/26
f 79/79/27 80/80/27 81/81/27
f 82/82/28 83/83/28 84/84/28
f 85/85/29 86/86/29 87/87/29
f 88/88/30 89/89/30 90/90/30
f 91/91/31 92/92/31 93/93/31
f 94/94/32 95/95/32 96/96/32
f 97/97/33 98/98/33 99/99/33
f 100/100/34 101/101/34 102/102/34
f 103/103/35 104/104/35 105/105/35
f 106/106/36 107/107/36 108/108/36
