# Original OUTLAND Verda starter kit; metres; Y-up; front -Z; origin ground centre
mtllib palette.mtl
o rock_field_lod1
usemtl verda_palette
s off
v 0.000000 0.680000 0.000000
v 0.208767 0.598112 0.276128
v 0.390961 0.581685 0.000000
v 0.000000 0.000000 0.000000
v 0.389058 0.099491 0.000000
v 0.185934 0.110118 0.245927
v 0.000000 0.680000 0.000000
v -0.215945 0.606987 0.285621
v 0.208767 0.598112 0.276128
v 0.000000 0.000000 0.000000
v 0.185934 0.110118 0.245927
v -0.210617 0.079601 0.278574
v 0.000000 0.680000 0.000000
v -0.369273 0.568278 0.000000
v -0.215945 0.606987 0.285621
v 0.000000 0.000000 0.000000
v -0.210617 0.079601 0.278574
v -0.430462 0.073896 0.000000
v 0.000000 0.680000 0.000000
v -0.206873 0.595771 -0.273622
v -0.369273 0.568278 0.000000
v 0.000000 0.000000 0.000000
v -0.430462 0.073896 0.000000
v -0.189862 0.105262 -0.251122
v 0.000000 0.680000 0.000000
v 0.203985 0.592200 -0.269802
v -0.206873 0.595771 -0.273622
v 0.000000 0.000000 0.000000
v -0.189862 0.105262 -0.251122
v 0.217716 0.070823 -0.287964
v 0.000000 0.680000 0.000000
v 0.390961 0.581685 0.000000
v 0.203985 0.592200 -0.269802
v 0.000000 0.000000 0.000000
v 0.217716 0.070823 -0.287964
v 0.389058 0.099491 0.000000
v 0.390961 0.581685 0.000000
v 0.208767 0.598112 0.276128
v 0.249271 0.340000 0.329700
v 0.390961 0.581685 0.000000
v 0.249271 0.340000 0.329700
v 0.571303 0.340000 0.000000
v 0.208767 0.598112 0.276128
v -0.215945 0.606987 0.285621
v -0.243778 0.340000 0.322434
v 0.208767 0.598112 0.276128
v -0.243778 0.340000 0.322434
v 0.249271 0.340000 0.329700
v -0.215945 0.606987 0.285621
v -0.369273 0.568278 0.000000
v -0.534711 0.340000 0.000000
v -0.215945 0.606987 0.285621
v -0.534711 0.340000 0.000000
v -0.243778 0.340000 0.322434
v -0.369273 0.568278 0.000000
v -0.206873 0.595771 -0.273622
v -0.291262 0.340000 -0.385240
v -0.369273 0.568278 0.000000
v -0.291262 0.340000 -0.385240
v -0.534711 0.340000 0.000000
v -0.206873 0.595771 -0.273622
v 0.203985 0.592200 -0.269802
v 0.258657 0.340000 -0.342115
v -0.206873 0.595771 -0.273622
v 0.258657 0.340000 -0.342115
v -0.291262 0.340000 -0.385240
v 0.203985 0.592200 -0.269802
v 0.390961 0.581685 0.000000
v 0.571303 0.340000 0.000000
v 0.203985 0.592200 -0.269802
v 0.571303 0.340000 0.000000
v 0.258657 0.340000 -0.342115
v 0.571303 0.340000 0.000000
v 0.249271 0.340000 0.329700
v 0.185934 0.110118 0.245927
v 0.571303 0.340000 0.000000
v 0.185934 0.110118 0.245927
v 0.389058 0.099491 0.000000
v 0.249271 0.340000 0.329700
v -0.243778 0.340000 0.322434
v -0.210617 0.079601 0.278574
v 0.249271 0.340000 0.329700
v -0.210617 0.079601 0.278574
v 0.185934 0.110118 0.245927
v -0.243778 0.340000 0.322434
v -0.534711 0.340000 0.000000
v -0.430462 0.073896 0.000000
v -0.243778 0.340000 0.322434
v -0.430462 0.073896 0.000000
v -0.210617 0.079601 0.278574
v -0.534711 0.340000 0.000000
v -0.291262 0.340000 -0.385240
v -0.189862 0.105262 -0.251122
v -0.534711 0.340000 0.000000
v -0.189862 0.105262 -0.251122
v -0.430462 0.073896 0.000000
v -0.291262 0.340000 -0.385240
v 0.258657 0.340000 -0.342115
v 0.217716 0.070823 -0.287964
v -0.291262 0.340000 -0.385240
v 0.217716 0.070823 -0.287964
v -0.189862 0.105262 -0.251122
v 0.258657 0.340000 -0.342115
v 0.571303 0.340000 0.000000
v 0.389058 0.099491 0.000000
v 0.258657 0.340000 -0.342115
v 0.389058 0.099491 0.000000
v 0.217716 0.070823 -0.287964
vt 0.625000 0.625000
vt 0.625000 0.625000
vt 0.625000 0.625000
vt 0.625000 0.625000
vt 0.625000 0.625000
vt 0.625000 0.625000
vt 0.625000 0.625000
vt 0.625000 0.625000
vt 0.625000 0.625000
vt 0.625000 0.625000
vt 0.625000 0.625000
vt 0.625000 0.625000
vt 0.625000 0.625000
vt 0.625000 0.625000
vt 0.625000 0.625000
vt 0.625000 0.625000
vt 0.625000 0.625000
vt 0.625000 0.625000
vt 0.625000 0.625000
vt 0.625000 0.625000
vt 0.625000 0.625000
vt 0.625000 0.625000
vt 0.625000 0.625000
vt 0.625000 0.625000
vt 0.625000 0.625000
vt 0.625000 0.625000
vt 0.625000 0.625000
vt 0.625000 0.625000
vt 0.625000 0.625000
vt 0.625000 0.625000
vt 0.625000 0.625000
vt 0.625000 0.625000
vt 0.625000 0.625000
vt 0.625000 0.625000
vt 0.625000 0.625000
vt 0.625000 0.625000
vt 0.625000 0.625000
vt 0.625000 0.625000
vt 0.625000 0.625000
vt 0.625000 0.625000
vt 0.625000 0.625000
vt 0.625000 0.625000
vt 0.625000 0.625000
vt 0.625000 0.625000
vt 0.625000 0.625000
vt 0.625000 0.625000
vt 0.625000 0.625000
vt 0.625000 0.625000
vt 0.625000 0.625000
vt 0.625000 0.625000
vt 0.625000 0.625000
vt 0.625000 0.625000
vt 0.625000 0.625000
vt 0.625000 0.625000
vt 0.625000 0.625000
vt 0.625000 0.625000
vt 0.625000 0.625000
vt 0.625000 0.625000
vt 0.625000 0.625000
vt 0.625000 0.625000
vt 0.625000 0.625000
vt 0.625000 0.625000
vt 0.625000 0.625000
vt 0.625000 0.625000
vt 0.625000 0.625000
vt 0.625000 0.625000
vt 0.625000 0.625000
vt 0.625000 0.625000
vt 0.625000 0.625000
vt 0.625000 0.625000
vt 0.625000 0.625000
vt 0.625000 0.625000
vt 0.625000 0.625000
vt 0.625000 0.625000
vt 0.625000 0.625000
vt 0.625000 0.625000
vt 0.625000 0.625000
vt 0.625000 0.625000
vt 0.625000 0.625000
vt 0.625000 0.625000
vt 0.625000 0.625000
vt 0.625000 0.625000
vt 0.625000 0.625000
vt 0.625000 0.625000
vt 0.625000 0.625000
vt 0.625000 0.625000
vt 0.625000 0.625000
vt 0.625000 0.625000
vt 0.625000 0.625000
vt 0.625000 0.625000
vt 0.625000 0.625000
vt 0.625000 0.625000
vt 0.625000 0.625000
vt 0.625000 0.625000
vt 0.625000 0.625000
vt 0.625000 0.625000
vt 0.625000 0.625000
vt 0.625000 0.625000
vt 0.625000 0.625000
vt 0.625000 0.625000
vt 0.625000 0.625000
vt 0.625000 0.625000
vt 0.625000 0.625000
vt 0.625000 0.625000
vt 0.625000 0.625000
vt 0.625000 0.625000
vt 0.625000 0.625000
vt 0.625000 0.625000
vn 0.242589 0.964681 0.102673
vn 0.240551 -0.940668 0.239329
vn 0.026082 0.963608 0.266046
vn 0.100093 -0.934135 0.342598
vn -0.289488 0.956836 0.025727
vn -0.167228 -0.974143 0.151921
vn -0.288757 0.954422 -0.075484
vn -0.162704 -0.947789 -0.274269
vn 0.011092 0.953294 -0.301839
vn -0.108066 -0.943347 -0.313716
vn 0.241805 0.961564 -0.130098
vn 0.247430 -0.967568 -0.050898
vn 0.817279 0.237243 0.525139
vn 0.631091 0.470912 0.616414
vn 0.024945 0.133996 0.990668
vn -0.014433 0.201029 0.979479
vn -0.763027 0.552982 0.334665
vn -0.731971 0.167372 0.660458
vn -0.788965 0.445140 -0.423537
vn -0.720830 0.522402 -0.455522
vn 0.011346 0.277876 -0.960550
vn 0.072355 0.378771 -0.922658
vn 0.707532 0.527951 -0.469751
vn 0.695990 0.333247 -0.636038
vn 0.651945 -0.411674 0.636783
vn 0.657734 -0.498394 0.564792
vn -0.014525 -0.167876 0.985701
vn 0.104288 -0.365761 0.924848
vn -0.712901 -0.279285 0.643251
vn -0.767081 -0.200340 0.609467
vn -0.702165 -0.556840 -0.443727
vn -0.679221 -0.266090 -0.683999
vn 0.076474 -0.207809 -0.975175
vn -0.120690 -0.531254 -0.838572
vn 0.644248 -0.488175 -0.588753
vn 0.846918 -0.225670 -0.481459
f 1/1/1 2/2/1 3/3/1
f 4/4/2 5/5/2 6/6/2
f 7/7/3 8/8/3 9/9/3
f 10/10/4 11/11/4 12/12/4
f 13/13/5 14/14/5 15/15/5
f 16/16/6 17/17/6 18/18/6
f 19/19/7 20/20/7 21/21/7
f 22/22/8 23/23/8 24/24/8
f 25/25/9 26/26/9 27/27/9
f 28/28/10 29/29/10 30/30/10
f 31/31/11 32/32/11 33/33/11
f 34/34/12 35/35/12 36/36/12
f 37/37/13 38/38/13 39/39/13
f 40/40/14 41/41/14 42/42/14
f 43/43/15 44/44/15 45/45/15
f 46/46/16 47/47/16 48/48/16
f 49/49/17 50/50/17 51/51/17
f 52/52/18 53/53/18 54/54/18
f 55/55/19 56/56/19 57/57/19
f 58/58/20 59/59/20 60/60/20
f 61/61/21 62/62/21 63/63/21
f 64/64/22 65/65/22 66/66/22
f 67/67/23 68/68/23 69/69/23
f 70/70/24 71/71/24 72/72/24
f 73/73/25 74/74/25 75/75/25
f 76/76/26 77/77/26 78/78/26
f 79/79/27 80/80/27 81/81/27
f 82/82/28 83/83/28 84/84/28
f 85/85/29 86/86/29 87/87/29
f 88/88/30 89/89/30 90/90/30
f 91/91/31 92/92/31 93/93/31
f 94/94/32 95/95/32 96/96/32
f 97/97/33 98/98/33 99/99/33
f 100/100/34 101/101/34 102/102/34
f 103/103/35 104/104/35 105/105/35
f 106/106/36 107/107/36 108/108/36
