# Original OUTLAND Verda starter kit; metres; Y-up; front -Z; origin ground centre
mtllib palette.mtl
o rock_boulder_lod0
usemtl verda_palette
s off
v 0.000000 1.900000 0.000000
v 0.474471 1.833281 0.341619
v 0.628298 1.777065 0.000000
v 0.000000 0.000000 0.000000
v 0.621115 0.132390 0.000000
v 0.494585 0.029274 0.356101
v 0.000000 1.900000 0.000000
v 0.000000 1.863651 0.499733
v 0.474471 1.833281 0.341619
v 0.000000 0.000000 0.000000
v 0.494585 0.029274 0.356101
v 0.000000 0.198042 0.411294
v 0.000000 1.900000 0.000000
v -0.419628 1.731185 0.302132
v 0.000000 1.863651 0.499733
v 0.000000 0.000000 0.000000
v 0.000000 0.198042 0.411294
v -0.475056 0.065630 0.342040
v 0.000000 1.900000 0.000000
v -0.664916 1.825268 0.000000
v -0.419628 1.731185 0.302132
v 0.000000 0.000000 0.000000
v -0.475056 0.065630 0.342040
v -0.672007 0.065398 0.000000
v 0.000000 1.900000 0.000000
v -0.463603 1.813048 -0.333794
v -0.664916 1.825268 0.000000
v 0.000000 0.000000 0.000000
v -0.672007 0.065398 0.000000
v -0.486487 0.044350 -0.350271
v 0.000000 1.900000 0.000000
v -0.000000 1.804590 -0.467429
v -0.463603 1.813048 -0.333794
v 0.000000 0.000000 0.000000
v -0.486487 0.044350 -0.350271
v -0.000000 0.222481 -0.397926
v 0.000000 1.900000 0.000000
v 0.400593 1.695749 -0.288427
v -0.000000 1.804590 -0.467429
v 0.000000 0.000000 0.000000
v -0.000000 0.222481 -0.397926
v 0.428386 0.152512 -0.308438
v 0.000000 1.900000 0.000000
v 0.628298 1.777065 0.000000
v 0.400593 1.695749 -0.288427
v 0.000000 0.000000 0.000000
v 0.428386 0.152512 -0.308438
v 0.621115 0.132390 0.000000
v 0.628298 1.777065 0.000000
v 0.474471 1.833281 0.341619
v 0.744186 1.411796 0.535814
v 0.628298 1.777065 0.000000
v 0.744186 1.411796 0.535814
v 0.959626 1.371071 0.000000
v 0.474471 1.833281 0.341619
v 0.000000 1.863651 0.499733
v 0.000000 1.453089 0.825514
v 0.474471 1.833281 0.341619
v 0.000000 1.453089 0.825514
v 0.744186 1.411796 0.535814
v 0.000000 1.863651 0.499733
v -0.419628 1.731185 0.302132
v -0.719976 1.396772 0.518382
v 0.000000 1.863651 0.499733
v -0.719976 1.396772 0.518382
v 0.000000 1.453089 0.825514
v -0.419628 1.731185 0.302132
v -0.664916 1.825268 0.000000
v -1.082948 1.425183 0.000000
v -0.419628 1.731185 0.302132
v -1.082948 1.425183 0.000000
v -0.719976 1.396772 0.518382
v -0.664916 1.825268 0.000000
v -0.463603 1.813048 -0.333794
v -0.731926 1.404188 -0.526987
v -0.664916 1.825268 0.000000
v -0.731926 1.404188 -0.526987
v -1.082948 1.425183 0.000000
v -0.463603 1.813048 -0.333794
v -0.000000 1.804590 -0.467429
v -0.000000 1.464481 -0.844207
v -0.463603 1.813048 -0.333794
v -0.000000 1.464481 -0.844207
v -0.731926 1.404188 -0.526987
v -0.000000 1.804590 -0.467429
v 0.400593 1.695749 -0.288427
v 0.847253 1.475752 -0.610022
v -0.000000 1.804590 -0.467429
v 0.847253 1.475752 -0.610022
v -0.000000 1.464481 -0.844207
v 0.400593 1.695749 -0.288427
v 0.628298 1.777065 0.000000
v 0.959626 1.371071 0.000000
v 0.400593 1.695749 -0.288427
v 0.959626 1.371071 0.000000
v 0.847253 1.475752 -0.610022
v 0.959626 1.371071 0.000000
v 0.744186 1.411796 0.535814
v 0.989620 0.950000 0.712526
v 0.959626 1.371071 0.000000
v 0.989620 0.950000 0.712526
v 1.220477 0.950000 0.000000
v 0.744186 1.411796 0.535814
v 0.000000 1.453089 0.825514
v 0.000000 0.950000 0.805434
v 0.744186 1.411796 0.535814
v 0.000000 0.950000 0.805434
v 0.989620 0.950000 0.712526
v 0.000000 1.453089 0.825514
v -0.719976 1.396772 0.518382
v -0.950198 0.950000 0.684142
v 0.000000 1.453089 0.825514
v -0.950198 0.950000 0.684142
v 0.000000 0.950000 0.805434
v -0.719976 1.396772 0.518382
v -1.082948 1.425183 0.000000
v -1.362595 0.950000 0.000000
v -0.719976 1.396772 0.518382
v -1.362595 0.950000 0.000000
v -0.950198 0.950000 0.684142
v -1.082948 1.425183 0.000000
v -0.731926 1.404188 -0.526987
v -0.809831 0.950000 -0.583079
v -1.082948 1.425183 0.000000
v -0.809831 0.950000 -0.583079
v -1.362595 0.950000 0.000000
v -0.731926 1.404188 -0.526987
v -0.000000 1.464481 -0.844207
v -0.000000 0.950000 -0.944403
v -0.731926 1.404188 -0.526987
v -0.000000 0.950000 -0.944403
v -0.809831 0.950000 -0.583079
v -0.000000 1.464481 -0.844207
v 0.847253 1.475752 -0.610022
v 0.896376 0.950000 -0.645391
v -0.000000 1.464481 -0.844207
v 0.896376 0.950000 -0.645391
v -0.000000 0.950000 -0.944403
v 0.847253 1.475752 -0.610022
v 0.959626 1.371071 0.000000
v 1.220477 0.950000 0.000000
v 0.847253 1.475752 -0.610022
v 1.220477 0.950000 0.000000
v 0.896376 0.950000 -0.645391
v 1.220477 0.950000 0.000000
v 0.989620 0.950000 0.712526
v 0.712191 0.508059 0.512778
v 1.220477 0.950000 0.000000
v 0.712191 0.508059 0.512778
v 1.200793 0.423109 0.000000
v 0.989620 0.950000 0.712526
v 0.000000 0.950000 0.805434
v 0.000000 0.470444 0.786898
v 0.989620 0.950000 0.712526
v 0.000000 0.470444 0.786898
v 0.712191 0.508059 0.512778
v 0.000000 0.950000 0.805434
v -0.950198 0.950000 0.684142
v -0.835727 0.431400 0.601724
v 0.000000 0.950000 0.805434
v -0.835727 0.431400 0.601724
v 0.000000 0.470444 0.786898
v -0.950198 0.950000 0.684142
v -1.362595 0.950000 0.000000
v -1.118586 0.459180 0.000000
v -0.950198 0.950000 0.684142
v -1.118586 0.459180 0.000000
v -0.835727 0.431400 0.601724
v -1.362595 0.950000 0.000000
v -0.809831 0.950000 -0.583079
v -0.730413 0.496751 -0.525898
v -1.362595 0.950000 0.000000
v -0.730413 0.496751 -0.525898
v -1.118586 0.459180 0.000000
v -0.809831 0.950000 -0.583079
v -0.000000 0.950000 -0.944403
v -0.000000 0.522668 -0.701206
v -0.809831 0.950000 -0.583079
v -0.000000 0.522668 -0.701206
v -0.730413 0.496751 -0.525898
v -0.000000 0.950000 -0.944403
v 0.896376 0.950000 -0.645391
v 0.846258 0.424866 -0.609305
v -0.000000 0.950000 -0.944403
v 0.846258 0.424866 -0.609305
v -0.000000 0.522668 -0.701206
v 0.896376 0.950000 -0.645391
v 1.220477 0.950000 0.000000
v 1.200793 0.423109 0.000000
v 0.896376 0.950000 -0.645391
v 1.200793 0.423109 0.000000
v 0.846258 0.424866 -0.609305
v 1.200793 0.423109 0.000000
v 0.712191 0.508059 0.512778
v 0.494585 0.029274 0.356101
v 1.200793 0.423109 0.000000
v 0.494585 0.029274 0.356101
v 0.621115 0.132390 0.000000
v 0.712191 0.508059 0.512778
v 0.000000 0.470444 0.786898
v 0.000000 0.198042 0.411294
v 0.712191 0.508059 0.512778
v 0.000000 0.198042 0.411294
v 0.494585 0.029274 0.356101
v 0.000000 0.470444 0.786898
v -0.835727 0.431400 0.601724
v -0.475056 0.065630 0.342040
v 0.000000 0.470444 0.786898
v -0.475056 0.065630 0.342040
v 0.000000 0.198042 0.411294
v -0.835727 0.431400 0.601724
v -1.118586 0.459180 0.000000
v -0.672007 0.065398 0.000000
v -0.835727 0.431400 0.601724
v -0.672007 0.065398 0.000000
v -0.475056 0.065630 0.342040
v -1.118586 0.459180 0.000000
v -0.730413 0.496751 -0.525898
v -0.486487 0.044350 -0.350271
v -1.118586 0.459180 0.000000
v -0.486487 0.044350 -0.350271
v -0.672007 0.065398 0.000000
v -0.730413 0.496751 -0.525898
v -0.000000 0.522668 -0.701206
v -0.000000 0.222481 -0.397926
v -0.730413 0.496751 -0.525898
v -0.000000 0.222481 -0.397926
v -0.486487 0.044350 -0.350271
v -0.000000 0.522668 -0.701206
v 0.846258 0.424866 -0.609305
v 0.428386 0.152512 -0.308438
v -0.000000 0.522668 -0.701206
v 0.428386 0.152512 -0.308438
v -0.000000 0.222481 -0.397926
v 0.846258 0.424866 -0.609305
v 1.200793 0.423109 0.000000
v 0.621115 0.132390 0.000000
v 0.846258 0.424866 -0.609305
v 0.621115 0.132390 0.000000
v 0.428386 0.152512 -0.308438
vt 0.625000 0.625000
vt 0.625000 0.625000
vt 0.625000 0.625000
vt 0.625000 0.625000
vt 0.625000 0.625000
vt 0.625000 0.625000
vt 0.625000 0.625000
vt 0.625000 0.625000
vt 0.625000 0.625000
vt 0.625000 0.625000
vt 0.625000 0.625000
vt 0.625000 0.625000
vt 0.625000 0.625000
vt 0.625000 0.625000
vt 0.625000 0.625000
vt 0.625000 0.625000
vt 0.625000 0.625000
vt 0.625000 0.625000
vt 0.625000 0.625000
vt 0.625000 0.625000
vt 0.625000 0.625000
vt 0.625000 0.625000
vt 0.625000 0.625000
vt 0.625000 0.625000
vt 0.625000 0.625000
vt 0.625000 0.625000
vt 0.625000 0.625000
vt 0.625000 0.625000
vt 0.625000 0.625000
vt 0.625000 0.625000
vt 0.625000 0.625000
vt 0.625000 0.625000
vt 0.625000 0.625000
vt 0.625000 0.625000
vt 0.625000 0.625000
vt 0.625000 0.625000
vt 0.625000 0.625000
vt 0.625000 0.625000
vt 0.625000 0.625000
vt 0.625000 0.625000
vt 0.625000 0.625000
vt 0.625000 0.625000
vt 0.625000 0.625000
vt 0.625000 0.625000
vt 0.625000 0.625000
vt 0.625000 0.625000
vt 0.625000 0.625000
vt 0.625000 0.625000
vt 0.625000 0.625000
vt 0.625000 0.625000
vt 0.625000 0.625000
vt 0.625000 0.625000
vt 0.625000 0.625000
vt 0.625000 0.625000
vt 0.625000 0.625000
vt 0.625000 0.625000
vt 0.625000 0.625000
vt 0.625000 0.625000
vt 0.625000 0.625000
vt 0.625000 0.625000
vt 0.625000 0.625000
vt 0.625000 0.625000
vt 0.625000 0.625000
vt 0.625000 0.625000
vt 0.625000 0.625000
vt 0.625000 0.625000
vt 0.625000 0.625000
vt 0.625000 0.625000
vt 0.625000 0.625000
vt 0.625000 0.625000
vt 0.625000 0.625000
vt 0.625000 0.625000
vt 0.625000 0.625000
vt 0.625000 0.625000
vt 0.625000 0.625000
vt 0.625000 0.625000
vt 0.625000 0.625000
vt 0.625000 0.625000
vt 0.625000 0.625000
vt 0.625000 0.625000
vt 0.625000 0.625000
vt 0.625000 0.625000
vt 0.625000 0.625000
vt 0.625000 0.625000
vt 0.625000 0.625000
vt 0.625000 0.625000
vt 0.625000 0.625000
vt 0.625000 0.625000
vt 0.625000 0.625000
vt 0.625000 0.625000
vt 0.625000 0.625000
vt 0.625000 0.625000
vt 0.625000 0.625000
vt 0.625000 0.625000
vt 0.625000 0.625000
vt 0.625000 0.625000
vt 0.625000 0.625000
vt 0.625000 0.625000
vt 0.625000 0.625000
vt 0.625000 0.625000
vt 0.625000 0.625000
vt 0.625000 0.625000
vt 0.625000 0.625000
vt 0.625000 0.625000
vt 0.625000 0.625000
vt 0.625000 0.625000
vt 0.625000 0.625000
vt 0.625000 0.625000
vt 0.625000 0.625000
vt 0.625000 0.625000
vt 0.625000 0.625000
vt 0.625000 0.625000
vt 0.625000 0.625000
vt 0.625000 0.625000
vt 0.625000 0.625000
vt 0.625000 0.625000
vt 0.625000 0.625000
vt 0.625000 0.625000
vt 0.625000 0.625000
vt 0.625000 0.625000
vt 0.625000 0.625000
vt 0.625000 0.625000
vt 0.625000 0.625000
vt 0.625000 0.625000
vt 0.625000 0.625000
vt 0.625000 0.625000
vt 0.625000 0.625000
vt 0.625000 0.625000
vt 0.625000 0.625000
vt 0.625000 0.625000
vt 0.625000 0.625000
vt 0.625000 0.625000
vt 0.625000 0.625000
vt 0.625000 0.625000
vt 0.625000 0.625000
vt 0.625000 0.625000
vt 0.625000 0.625000
vt 0.625000 0.625000
vt 0.625000 0.625000
vt 0.625000 0.625000
vt 0.625000 0.625000
vt 0.625000 0.625000
vt 0.625000 0.625000
vt 0.625000 0.625000
vt 0.625000 0.625000
vt 0.625000 0.625000
vt 0.625000 0.625000
vt 0.625000 0.625000
vt 0.625000 0.625000
vt 0.625000 0.625000
vt 0.625000 0.625000
vt 0.625000 0.625000
vt 0.625000 0.625000
vt 0.625000 0.625000
vt 0.625000 0.625000
vt 0.625000 0.625000
vt 0.625000 0.625000
vt 0.625000 0.625000
vt 0.625000 0.625000
vt 0.625000 0.625000
vt 0.625000 0.625000
vt 0.625000 0.625000
vt 0.625000 0.625000
vt 0.625000 0.625000
vt 0.625000 0.625000
vt 0.625000 0.625000
vt 0.625000 0.625000
vt 0.625000 0.625000
vt 0.625000 0.625000
vt 0.625000 0.625000
vt 0.625000 0.625000
vt 0.625000 0.625000
vt 0.625000 0.625000
vt 0.625000 0.625000
vt 0.625000 0.625000
vt 0.625000 0.625000
vt 0.625000 0.625000
vt 0.625000 0.625000
vt 0.625000 0.625000
vt 0.625000 0.625000
vt 0.625000 0.625000
vt 0.625000 0.625000
vt 0.625000 0.625000
vt 0.625000 0.625000
vt 0.625000 0.625000
vt 0.625000 0.625000
vt 0.625000 0.625000
vt 0.625000 0.625000
vt 0.625000 0.625000
vt 0.625000 0.625000
vt 0.625000 0.625000
vt 0.625000 0.625000
vt 0.625000 0.625000
vt 0.625000 0.625000
vt 0.625000 0.625000
vt 0.625000 0.625000
vt 0.625000 0.625000
vt 0.625000 0.625000
vt 0.625000 0.625000
vt 0.625000 0.625000
vt 0.625000 0.625000
vt 0.625000 0.625000
vt 0.625000 0.625000
vt 0.625000 0.625000
vt 0.625000 0.625000
vt 0.625000 0.625000
vt 0.625000 0.625000
vt 0.625000 0.625000
vt 0.625000 0.625000
vt 0.625000 0.625000
vt 0.625000 0.625000
vt 0.625000 0.625000
vt 0.625000 0.625000
vt 0.625000 0.625000
vt 0.625000 0.625000
vt 0.625000 0.625000
vt 0.625000 0.625000
vt 0.625000 0.625000
vt 0.625000 0.625000
vt 0.625000 0.625000
vt 0.625000 0.625000
vt 0.625000 0.625000
vt 0.625000 0.625000
vt 0.625000 0.625000
vt 0.625000 0.625000
vt 0.625000 0.625000
vt 0.625000 0.625000
vt 0.625000 0.625000
vt 0.625000 0.625000
vt 0.625000 0.625000
vt 0.625000 0.625000
vt 0.625000 0.625000
vt 0.625000 0.625000
vt 0.625000 0.625000
vt 0.625000 0.625000
vt 0.625000 0.625000
vt 0.625000 0.625000
vt 0.625000 0.625000
vt 0.625000 0.625000
vt 0.625000 0.625000
vn 0.191484 0.978640 -0.074821
vn 0.204052 -0.957318 -0.204706
vn 0.087674 0.993524 0.072267
vn -0.250757 -0.872205 0.419975
vn -0.329512 0.941663 0.068494
vn 0.184657 -0.885497 0.426376
vn -0.103697 0.922628 0.371491
vn -0.096706 -0.993716 0.056358
vn -0.111094 0.988438 -0.103187
vn -0.096857 -0.995262 0.008506
vn -0.039741 0.979023 -0.199835
vn 0.262278 -0.842284 -0.470923
vn 0.335026 0.923174 -0.188435
vn -0.040587 -0.872121 -0.487604
vn 0.176515 0.902136 -0.393691
vn 0.204648 -0.960117 -0.190511
vn 0.761776 0.600021 0.244279
vn 0.749186 0.611405 0.254762
vn 0.288077 0.595235 0.750138
vn 0.327331 0.560095 0.761018
vn -0.464377 0.735805 0.492895
vn -0.357490 0.580509 0.731581
vn -0.543526 0.567907 0.618110
vn -0.529609 0.741750 0.411487
vn -0.655871 0.628205 -0.418559
vn -0.621059 0.648918 -0.439535
vn -0.176777 0.730615 -0.659509
vn -0.363238 0.582118 -0.727459
vn 0.330397 0.927379 -0.175518
vn 0.172700 0.731152 -0.659993
vn 0.607963 0.496154 -0.619848
vn 0.476894 0.876729 0.062599
vn 0.798840 0.532003 0.280762
vn 0.819576 0.507723 0.265541
vn 0.360722 -0.037197 0.931931
vn 0.085848 0.395544 0.914426
vn -0.374801 0.486047 0.789482
vn -0.126522 -0.039562 0.991175
vn -0.728777 0.428888 0.533797
vn -0.723687 0.534768 0.436234
vn -0.810477 0.206707 -0.548087
vn -0.667400 0.392768 -0.632701
vn -0.403627 0.174896 -0.898051
vn -0.400823 0.179698 -0.898359
vn 0.264248 0.089293 -0.960312
vn 0.311171 0.181669 -0.932828
vn 0.848237 0.525478 -0.066082
vn 0.887928 0.112960 -0.445897
vn 0.765986 -0.593020 0.248178
vn 0.721470 -0.026954 0.691921
vn 0.093402 -0.038453 0.994886
vn 0.324895 -0.551282 0.768460
vn -0.124495 -0.182479 0.975296
vn -0.214493 -0.037723 0.975997
vn -0.787985 -0.391743 0.474993
vn -0.878937 -0.257780 0.401271
vn -0.709659 -0.209221 -0.672763
vn -0.736079 -0.365938 -0.569454
vn -0.361543 -0.461158 -0.810321
vn -0.224959 -0.160659 -0.961032
vn 0.315007 -0.094955 -0.944327
vn 0.037194 -0.494274 -0.868510
vn 0.893150 -0.033367 -0.448520
vn 0.858323 -0.116260 -0.499766
vn 0.593577 -0.480934 0.645267
vn 0.446093 -0.889487 -0.099062
vn 0.259519 -0.781784 0.566978
vn -0.000058 -0.310985 0.950415
vn -0.133497 -0.657867 0.741208
vn 0.138697 -0.801695 0.581419
vn -0.637495 -0.722970 0.266297
vn -0.552143 -0.770536 0.318453
vn -0.651035 -0.552912 -0.520040
vn -0.632567 -0.717381 -0.291930
vn -0.142166 -0.703503 -0.696328
vn 0.034608 -0.345410 -0.937814
vn -0.011007 -0.733665 -0.679422
vn 0.030854 -0.710384 -0.703138
vn 0.433509 -0.864395 -0.254737
vn 0.368665 -0.883816 -0.288020
f 1/1/1 2/2/1 3/3/1
f 4/4/2 5/5/2 6/6/2
f 7/7/3 8/8/3 9/9/3
f 10/10/4 11/11/4 12/12/4
f 13/13/5 14/14/5 15/15/5
f 16/16/6 17/17/6 18/18/6
f 19/19/7 20/20/7 21/21/7
f 22/22/8 23/23/8 24/24/8
f 25/25/9 26/26/9 27/27/9
f 28/28/10 29/29/10 30/30/10
f 31/31/11 32/32/11 33/33/11
f 34/34/12 35/35/12 36/36/12
f 37/37/13 38/38/13 39/39/13
f 40/40/14 41/41/14 42/42/14
f 43/43/15 44/44/15 45/45/15
f 46/46/16 47/47/16 48/48/16
f 49/49/17 50/50/17 51/51/17
f 52/52/18 53/53/18 54/54/18
f 55/55/19 56/56/19 57/57/19
f 58/58/20 59/59/20 60/60/20
f 61/61/21 62/62/21 63/63/21
f 64/64/22 65/65/22 66/66/22
f 67/67/23 68/68/23 69/69/23
f 70/70/24 71/71/24 72/72/24
f 73/73/25 74/74/25 75/75/25
f 76/76/26 77/77/26 78/78/26
f 79/79/27 80/80/27 81/81/27
f 82/82/28 83/83/28 84/84/28
f 85/85/29 86/86/29 87/87/29
f 88/88/30 89/89/30 90/90/30
f 91/91/31 92/92/31 93/93/31
f 94/94/32 95/95/32 96/96/32
f 97/97/33 98/98/33 99/99/33
f 100/100/34 101/101/34 102/102/34
f 103/103/35 104/104/35 105/105/35
f 106/106/36 107/107/36 108/108/36
f 109/109/37 110/110/37 111/111/37
f 112/112/38 113/113/38 114/114/38
f 115/115/39 116/116/39 117/117/39
f 118/118/40 119/119/40 120/120/40
f 121/121/41 122/122/41 123/123/41
f 124/124/42 125/125/42 126/126/42
f 127/127/43 128/128/43 129/129/43
f 130/130/44 131/131/44 132/132/44
f 133/133/45 134/134/45 135/135/45
f 136/136/46 137/137/46 138/138/46
f 139/139/47 140/140/47 141/141/47
f 142/142/48 143/143/48 144/144/48
f 145/145/49 146/146/49 147/147/49
f 148/148/50 149/149/50 150/150/50
f 151/151/51 152/152/51 153/153/51
f 154/154/52 155/155/52 156/156/52
f 157/157/53 158/158/53 159/159/53
f 160/160/54 161/161/54 162/162/54
f 163/163/55 164/164/55 165/165/55
f 166/166/56 167/167/56 168/168/56
f 169/169/57 170/170/57 171/171/57
f 172/172/58 173/173/58 174/174/58
f 175/175/59 176/176/59 177/177/59
f 178/178/60 179/179/60 180/180/60
f 181/181/61 182/182/61 183/183/61
f 184/184/62 185/185/62 186/186/62
f 187/187/63 188/188/63 189/189/63
f 190/190/64 191/191/64 192/192/64
f 193/193/65 194/194/65 195/195/65
f 196/196/66 197/197/66 198/198/66
f 199/199/67 200/200/67 201/201/67
f 202/202/68 203/203/68 204/204/68
f 205/205/69 206/206/69 207/207/69
f 208/208/70 209/209/70 210/210/70
f 211/211/71 212/212/71 213/213/71
f 214/214/72 215/215/72 216/216/72
f 217/217/73 218/218/73 219/219/73
f 220/220/74 221/221/74 222/222/74
f 223/223/75 224/224/75 225/225/75
f 226/226/76 227/227/76 228/228/76
f 229/229/77 230/230/77 231/231/77
f 232/232/78 233/233/78 234/234/78
f 235/235/79 236/236/79 237/237/79
f 238/238/80 239/239/80 240/240/80
