# Original OUTLAND Verda starter kit; metres; Y-up; front -Z; origin ground centre
mtllib palette.mtl
o rock_field_lod0
usemtl verda_palette
s off
v 0.000000 0.680000 0.000000
v 0.208767 0.656122 0.159422
v 0.276451 0.636002 0.000000
v 0.000000 0.000000 0.000000
v 0.273290 0.047382 0.000000
v 0.217617 0.010477 0.166181
v 0.000000 0.680000 0.000000
v 0.000000 0.666991 0.233209
v 0.208767 0.656122 0.159422
v 0.000000 0.000000 0.000000
v 0.217617 0.010477 0.166181
v 0.000000 0.070878 0.191937
v 0.000000 0.680000 0.000000
v -0.184636 0.619582 0.140995
v 0.000000 0.666991 0.233209
v 0.000000 0.000000 0.000000
v 0.000000 0.070878 0.191937
v -0.209025 0.023489 0.159619
v 0.000000 0.680000 0.000000
v -0.292563 0.653254 0.000000
v -0.184636 0.619582 0.140995
v 0.000000 0.000000 0.000000
v -0.209025 0.023489 0.159619
v -0.295683 0.023406 0.000000
v 0.000000 0.680000 0.000000
v -0.203985 0.648880 -0.155770
v -0.292563 0.653254 0.000000
v 0.000000 0.000000 0.000000
v -0.295683 0.023406 0.000000
v -0.214054 0.015873 -0.163460
v 0.000000 0.680000 0.000000
v -0.000000 0.645853 -0.218134
v -0.203985 0.648880 -0.155770
v 0.000000 0.000000 0.000000
v -0.214054 0.015873 -0.163460
v -0.000000 0.079625 -0.185699
v 0.000000 0.680000 0.000000
v 0.176261 0.606900 -0.134599
v -0.000000 0.645853 -0.218134
v 0.000000 0.000000 0.000000
v -0.000000 0.079625 -0.185699
v 0.188490 0.054583 -0.143938
v 0.000000 0.680000 0.000000
v 0.276451 0.636002 0.000000
v 0.176261 0.606900 -0.134599
v 0.000000 0.000000 0.000000
v 0.188490 0.054583 -0.143938
v 0.273290 0.047382 0.000000
v 0.276451 0.636002 0.000000
v 0.208767 0.656122 0.159422
v 0.327442 0.505274 0.250047
v 0.276451 0.636002 0.000000
v 0.327442 0.505274 0.250047
v 0.422236 0.490699 0.000000
v 0.208767 0.656122 0.159422
v 0.000000 0.666991 0.233209
v 0.000000 0.520053 0.385240
v 0.208767 0.656122 0.159422
v 0.000000 0.520053 0.385240
v 0.327442 0.505274 0.250047
v 0.000000 0.666991 0.233209
v -0.184636 0.619582 0.140995
v -0.316789 0.499897 0.241912
v 0.000000 0.666991 0.233209
v -0.316789 0.499897 0.241912
v 0.000000 0.520053 0.385240
v -0.184636 0.619582 0.140995
v -0.292563 0.653254 0.000000
v -0.476497 0.510065 0.000000
v -0.184636 0.619582 0.140995
v -0.476497 0.510065 0.000000
v -0.316789 0.499897 0.241912
v -0.292563 0.653254 0.000000
v -0.203985 0.648880 -0.155770
v -0.322048 0.502551 -0.245927
v -0.292563 0.653254 0.000000
v -0.322048 0.502551 -0.245927
v -0.476497 0.510065 0.000000
v -0.203985 0.648880 -0.155770
v -0.000000 0.645853 -0.218134
v -0.000000 0.524130 -0.393963
v -0.203985 0.648880 -0.155770
v -0.000000 0.524130 -0.393963
v -0.322048 0.502551 -0.245927
v -0.000000 0.645853 -0.218134
v 0.176261 0.606900 -0.134599
v 0.372791 0.528164 -0.284677
v -0.000000 0.645853 -0.218134
v 0.372791 0.528164 -0.284677
v -0.000000 0.524130 -0.393963
v 0.176261 0.606900 -0.134599
v 0.276451 0.636002 0.000000
v 0.422236 0.490699 0.000000
v 0.176261 0.606900 -0.134599
v 0.422236 0.490699 0.000000
v 0.372791 0.528164 -0.284677
v 0.422236 0.490699 0.000000
v 0.327442 0.505274 0.250047
v 0.435433 0.340000 0.332512
v 0.422236 0.490699 0.000000
v 0.435433 0.340000 0.332512
v 0.537010 0.340000 0.000000
v 0.327442 0.505274 0.250047
v 0.000000 0.520053 0.385240
v 0.000000 0.340000 0.375869
v 0.327442 0.505274 0.250047
v 0.000000 0.340000 0.375869
v 0.435433 0.340000 0.332512
v 0.000000 0.520053 0.385240
v -0.316789 0.499897 0.241912
v -0.418087 0.340000 0.319266
v 0.000000 0.520053 0.385240
v -0.418087 0.340000 0.319266
v 0.000000 0.340000 0.375869
v -0.316789 0.499897 0.241912
v -0.476497 0.510065 0.000000
v -0.599542 0.340000 0.000000
v -0.316789 0.499897 0.241912
v -0.599542 0.340000 0.000000
v -0.418087 0.340000 0.319266
v -0.476497 0.510065 0.000000
v -0.322048 0.502551 -0.245927
v -0.356326 0.340000 -0.272103
v -0.476497 0.510065 0.000000
v -0.356326 0.340000 -0.272103
v -0.599542 0.340000 0.000000
v -0.322048 0.502551 -0.245927
v -0.000000 0.524130 -0.393963
v -0.000000 0.340000 -0.440721
v -0.322048 0.502551 -0.245927
v -0.000000 0.340000 -0.440721
v -0.356326 0.340000 -0.272103
v -0.000000 0.524130 -0.393963
v 0.372791 0.528164 -0.284677
v 0.394406 0.340000 -0.301182
v -0.000000 0.524130 -0.393963
v 0.394406 0.340000 -0.301182
v -0.000000 0.340000 -0.440721
v 0.372791 0.528164 -0.284677
v 0.422236 0.490699 0.000000
v 0.537010 0.340000 0.000000
v 0.372791 0.528164 -0.284677
v 0.537010 0.340000 0.000000
v 0.394406 0.340000 -0.301182
v 0.537010 0.340000 0.000000
v 0.435433 0.340000 0.332512
v 0.313364 0.181832 0.239296
v 0.537010 0.340000 0.000000
v 0.313364 0.181832 0.239296
v 0.528349 0.151428 0.000000
v 0.435433 0.340000 0.332512
v 0.000000 0.340000 0.375869
v 0.000000 0.168369 0.367219
v 0.435433 0.340000 0.332512
v 0.000000 0.168369 0.367219
v 0.313364 0.181832 0.239296
v 0.000000 0.340000 0.375869
v -0.418087 0.340000 0.319266
v -0.367720 0.154396 0.280804
v 0.000000 0.340000 0.375869
v -0.367720 0.154396 0.280804
v 0.000000 0.168369 0.367219
v -0.418087 0.340000 0.319266
v -0.599542 0.340000 0.000000
v -0.492178 0.164338 0.000000
v -0.418087 0.340000 0.319266
v -0.492178 0.164338 0.000000
v -0.367720 0.154396 0.280804
v -0.599542 0.340000 0.000000
v -0.356326 0.340000 -0.272103
v -0.321382 0.177785 -0.245419
v -0.599542 0.340000 0.000000
v -0.321382 0.177785 -0.245419
v -0.492178 0.164338 0.000000
v -0.356326 0.340000 -0.272103
v -0.000000 0.340000 -0.440721
v -0.000000 0.187060 -0.327229
v -0.356326 0.340000 -0.272103
v -0.000000 0.187060 -0.327229
v -0.321382 0.177785 -0.245419
v -0.000000 0.340000 -0.440721
v 0.394406 0.340000 -0.301182
v 0.372353 0.152057 -0.284343
v -0.000000 0.340000 -0.440721
v 0.372353 0.152057 -0.284343
v -0.000000 0.187060 -0.327229
v 0.394406 0.340000 -0.301182
v 0.537010 0.340000 0.000000
v 0.528349 0.151428 0.000000
v 0.394406 0.340000 -0.301182
v 0.528349 0.151428 0.000000
v 0.372353 0.152057 -0.284343
v 0.528349 0.151428 0.000000
v 0.313364 0.181832 0.239296
v 0.217617 0.010477 0.166181
v 0.528349 0.151428 0.000000
v 0.217617 0.010477 0.166181
v 0.273290 0.047382 0.000000
v 0.313364 0.181832 0.239296
v 0.000000 0.168369 0.367219
v 0.000000 0.070878 0.191937
v 0.313364 0.181832 0.239296
v 0.000000 0.070878 0.191937
v 0.217617 0.010477 0.166181
v 0.000000 0.168369 0.367219
v -0.367720 0.154396 0.280804
v -0.209025 0.023489 0.159619
v 0.000000 0.168369 0.367219
v -0.209025 0.023489 0.159619
v 0.000000 0.070878 0.191937
v -0.367720 0.154396 0.280804
v -0.492178 0.164338 0.000000
v -0.295683 0.023406 0.000000
v -0.367720 0.154396 0.280804
v -0.295683 0.023406 0.000000
v -0.209025 0.023489 0.159619
v -0.492178 0.164338 0.000000
v -0.321382 0.177785 -0.245419
v -0.214054 0.015873 -0.163460
v -0.492178 0.164338 0.000000
v -0.214054 0.015873 -0.163460
v -0.295683 0.023406 0.000000
v -0.321382 0.177785 -0.245419
v -0.000000 0.187060 -0.327229
v -0.000000 0.079625 -0.185699
v -0.321382 0.177785 -0.245419
v -0.000000 0.079625 -0.185699
v -0.214054 0.015873 -0.163460
v -0.000000 0.187060 -0.327229
v 0.372353 0.152057 -0.284343
v 0.188490 0.054583 -0.143938
v -0.000000 0.187060 -0.327229
v 0.188490 0.054583 -0.143938
v -0.000000 0.079625 -0.185699
v 0.372353 0.152057 -0.284343
v 0.528349 0.151428 0.000000
v 0.273290 0.047382 0.000000
v 0.372353 0.152057 -0.284343
v 0.273290 0.047382 0.000000
v 0.188490 0.054583 -0.143938
vt 0.625000 0.625000
vt 0.625000 0.625000
vt 0.625000 0.625000
vt 0.625000 0.625000
vt 0.625000 0.625000
vt 0.625000 0.625000
vt 0.625000 0.625000
vt 0.625000 0.625000
vt 0.625000 0.625000
vt 0.625000 0.625000
vt 0.625000 0.625000
vt 0.625000 0.625000
vt 0.625000 0.625000
vt 0.625000 0.625000
vt 0.625000 0.625000
vt 0.625000 0.625000
vt 0.625000 0.625000
vt 0.625000 0.625000
vt 0.625000 0.625000
vt 0.625000 0.625000
vt 0.625000 0.625000
vt 0.625000 0.625000
vt 0.625000 0.625000
vt 0.625000 0.625000
vt 0.625000 0.625000
vt 0.625000 0.625000
vt 0.625000 0.625000
vt 0.625000 0.625000
vt 0.625000 0.625000
vt 0.625000 0.625000
vt 0.625000 0.625000
vt 0.625000 0.625000
vt 0.625000 0.625000
vt 0.625000 0.625000
vt 0.625000 0.625000
vt 0.625000 0.625000
vt 0.625000 0.625000
vt 0.625000 0.625000
vt 0.625000 0.625000
vt 0.625000 0.625000
vt 0.625000 0.625000
vt 0.625000 0.625000
vt 0.625000 0.625000
vt 0.625000 0.625000
vt 0.625000 0.625000
vt 0.625000 0.625000
vt 0.625000 0.625000
vt 0.625000 0.625000
vt 0.625000 0.625000
vt 0.625000 0.625000
vt 0.625000 0.625000
vt 0.625000 0.625000
vt 0.625000 0.625000
vt 0.625000 0.625000
vt 0.625000 0.625000
vt 0.625000 0.625000
vt 0.625000 0.625000
vt 0.625000 0.625000
vt 0.625000 0.625000
vt 0.625000 0.625000
vt 0.625000 0.625000
vt 0.625000 0.625000
vt 0.625000 0.625000
vt 0.625000 0.625000
vt 0.625000 0.625000
vt 0.625000 0.625000
vt 0.625000 0.625000
vt 0.625000 0.625000
vt 0.625000 0.625000
vt 0.625000 0.625000
vt 0.625000 0.625000
vt 0.625000 0.625000
vt 0.625000 0.625000
vt 0.625000 0.625000
vt 0.625000 0.625000
vt 0.625000 0.625000
vt 0.625000 0.625000
vt 0.625000 0.625000
vt 0.625000 0.625000
vt 0.625000 0.625000
vt 0.625000 0.625000
vt 0.625000 0.625000
vt 0.625000 0.625000
vt 0.625000 0.625000
vt 0.625000 0.625000
vt 0.625000 0.625000
vt 0.625000 0.625000
vt 0.625000 0.625000
vt 0.625000 0.625000
vt 0.625000 0.625000
vt 0.625000 0.625000
vt 0.625000 0.625000
vt 0.625000 0.625000
vt 0.625000 0.625000
vt 0.625000 0.625000
vt 0.625000 0.625000
vt 0.625000 0.625000
vt 0.625000 0.625000
vt 0.625000 0.625000
vt 0.625000 0.625000
vt 0.625000 0.625000
vt 0.625000 0.625000
vt 0.625000 0.625000
vt 0.625000 0.625000
vt 0.625000 0.625000
vt 0.625000 0.625000
vt 0.625000 0.625000
vt 0.625000 0.625000
vt 0.625000 0.625000
vt 0.625000 0.625000
vt 0.625000 0.625000
vt 0.625000 0.625000
vt 0.625000 0.625000
vt 0.625000 0.625000
vt 0.625000 0.625000
vt 0.625000 0.625000
vt 0.625000 0.625000
vt 0.625000 0.625000
vt 0.625000 0.625000
vt 0.625000 0.625000
vt 0.625000 0.625000
vt 0.625000 0.625000
vt 0.625000 0.625000
vt 0.625000 0.625000
vt 0.625000 0.625000
vt 0.625000 0.625000
vt 0.625000 0.625000
vt 0.625000 0.625000
vt 0.625000 0.625000
vt 0.625000 0.625000
vt 0.625000 0.625000
vt 0.625000 0.625000
vt 0.625000 0.625000
vt 0.625000 0.625000
vt 0.625000 0.625000
vt 0.625000 0.625000
vt 0.625000 0.625000
vt 0.625000 0.625000
vt 0.625000 0.625000
vt 0.625000 0.625000
vt 0.625000 0.625000
vt 0.625000 0.625000
vt 0.625000 0.625000
vt 0.625000 0.625000
vt 0.625000 0.625000
vt 0.625000 0.625000
vt 0.625000 0.625000
vt 0.625000 0.625000
vt 0.625000 0.625000
vt 0.625000 0.625000
vt 0.625000 0.625000
vt 0.625000 0.625000
vt 0.625000 0.625000
vt 0.625000 0.625000
vt 0.625000 0.625000
vt 0.625000 0.625000
vt 0.625000 0.625000
vt 0.625000 0.625000
vt 0.625000 0.625000
vt 0.625000 0.625000
vt 0.625000 0.625000
vt 0.625000 0.625000
vt 0.625000 0.625000
vt 0.625000 0.625000
vt 0.625000 0.625000
vt 0.625000 0.625000
vt 0.625000 0.625000
vt 0.625000 0.625000
vt 0.625000 0.625000
vt 0.625000 0.625000
vt 0.625000 0.625000
vt 0.625000 0.625000
vt 0.625000 0.625000
vt 0.625000 0.625000
vt 0.625000 0.625000
vt 0.625000 0.625000
vt 0.625000 0.625000
vt 0.625000 0.625000
vt 0.625000 0.625000
vt 0.625000 0.625000
vt 0.625000 0.625000
vt 0.625000 0.625000
vt 0.625000 0.625000
vt 0.625000 0.625000
vt 0.625000 0.625000
vt 0.625000 0.625000
vt 0.625000 0.625000
vt 0.625000 0.625000
vt 0.625000 0.625000
vt 0.625000 0.625000
vt 0.625000 0.625000
vt 0.625000 0.625000
vt 0.625000 0.625000
vt 0.625000 0.625000
vt 0.625000 0.625000
vt 0.625000 0.625000
vt 0.625000 0.625000
vt 0.625000 0.625000
vt 0.625000 0.625000
vt 0.625000 0.625000
vt 0.625000 0.625000
vt 0.625000 0.625000
vt 0.625000 0.625000
vt 0.625000 0.625000
vt 0.625000 0.625000
vt 0.625000 0.625000
vt 0.625000 0.625000
vt 0.625000 0.625000
vt 0.625000 0.625000
vt 0.625000 0.625000
vt 0.625000 0.625000
vt 0.625000 0.625000
vt 0.625000 0.625000
vt 0.625000 0.625000
vt 0.625000 0.625000
vt 0.625000 0.625000
vt 0.625000 0.625000
vt 0.625000 0.625000
vt 0.625000 0.625000
vt 0.625000 0.625000
vt 0.625000 0.625000
vt 0.625000 0.625000
vt 0.625000 0.625000
vt 0.625000 0.625000
vt 0.625000 0.625000
vt 0.625000 0.625000
vt 0.625000 0.625000
vt 0.625000 0.625000
vt 0.625000 0.625000
vt 0.625000 0.625000
vt 0.625000 0.625000
vt 0.625000 0.625000
vt 0.625000 0.625000
vt 0.625000 0.625000
vt 0.625000 0.625000
vt 0.625000 0.625000
vt 0.625000 0.625000
vt 0.625000 0.625000
vt 0.625000 0.625000
vt 0.625000 0.625000
vn 0.156911 0.985919 -0.057808
vn 0.168639 -0.972685 -0.159513
vn 0.071484 0.995893 0.055555
vn -0.214275 -0.916294 0.338367
vn -0.273363 0.960418 0.053576
vn 0.157142 -0.926427 0.342109
vn -0.087019 0.951858 0.293929
vn -0.078837 -0.995946 0.043319
vn -0.090753 0.992697 -0.079477
vn -0.078909 -0.996860 0.006534
vn -0.032604 0.987443 -0.154575
vn 0.226724 -0.895140 -0.383823
vn 0.279973 0.948457 -0.148472
vn -0.034770 -0.918518 -0.393847
vn 0.149234 0.937680 -0.313824
vn 0.168938 -0.974409 -0.148281
vn 0.702013 0.679800 0.212250
vn 0.688520 0.690802 0.220754
vn 0.272361 0.691865 0.668687
vn 0.312645 0.657694 0.685340
vn -0.415362 0.809127 0.415678
vn -0.338867 0.676505 0.653842
vn -0.513004 0.658984 0.550062
vn -0.471327 0.811562 0.345278
vn -0.603167 0.710262 -0.362929
vn -0.568388 0.730128 -0.379273
vn -0.159737 0.811646 -0.561885
vn -0.344064 0.677886 -0.649685
vn 0.275671 0.951283 -0.138078
vn 0.156032 0.812133 -0.562222
vn 0.584135 0.586071 -0.561523
vn 0.404105 0.913344 0.050013
vn 0.749497 0.613651 0.248368
vn 0.773042 0.588760 0.236152
vn 0.379332 -0.048090 0.924010
vn 0.086403 0.489432 0.867751
vn -0.365485 0.582699 0.725867
vn -0.133983 -0.051506 0.989644
vn -0.707036 0.511550 0.488280
vn -0.682257 0.619812 0.387760
vn -0.815176 0.255601 -0.519765
vn -0.656191 0.474763 -0.586527
vn -0.419421 0.223432 -0.879866
vn -0.416325 0.229467 -0.879783
vn 0.278280 0.115607 -0.953517
vn 0.324371 0.232819 -0.916831
vn 0.794189 0.604865 -0.058336
vn 0.894912 0.139967 -0.423724
vn 0.707240 -0.673152 0.216051
vn 0.741298 -0.034048 0.670312
vn 0.098957 -0.050087 0.993830
vn 0.311211 -0.649207 0.694031
vn -0.130404 -0.234990 0.963210
vn -0.226729 -0.049023 0.972723
vn -0.767737 -0.469238 0.436343
vn -0.871942 -0.314396 0.375330
vn -0.719757 -0.260879 -0.643345
vn -0.724405 -0.442754 -0.528399
vn -0.355228 -0.557050 -0.750672
vn -0.235735 -0.206978 -0.949520
vn 0.331017 -0.122672 -0.935617
vn 0.036450 -0.595520 -0.802513
vn 0.903031 -0.041476 -0.427569
vn 0.867398 -0.144443 -0.476190
vn 0.573277 -0.571046 0.587588
vn 0.376538 -0.923040 -0.078839
vn 0.229662 -0.850560 0.473078
vn -0.000059 -0.392430 0.919782
vn -0.123930 -0.750826 0.648769
vn 0.122060 -0.867385 0.482436
vn -0.568049 -0.792002 0.223728
vn -0.485683 -0.833280 0.264114
vn -0.613439 -0.640501 -0.462008
vn -0.564939 -0.787665 -0.245821
vn -0.129817 -0.789769 -0.599510
vn 0.035259 -0.432647 -0.900874
vn -0.009949 -0.815260 -0.579010
vn 0.028128 -0.796194 -0.604387
vn 0.369705 -0.906290 -0.204831
vn 0.312663 -0.921520 -0.230311
f 1/1/1 2/2/1 3/3/1
f 4/4/2 5/5/2 6/6/2
f 7/7/3 8/8/3 9/9/3
f 10/10/4 11/11/4 12/12/4
f 13/13/5 14/14/5 15/15/5
f 16/16/6 17/17/6 18/18/6
f 19/19/7 20/20/7 21/21/7
f 22/22/8 23/23/8 24/24/8
f 25/25/9 26/26/9 27/27/9
f 28/28/10 29/29/10 30/30/10
f 31/31/11 32/32/11 33/33/11
f 34/34/12 35/35/12 36/36/12
f 37/37/13 38/38/13 39/39/13
f 40/40/14 41/41/14 42/42/14
f 43/43/15 44/44/15 45/45/15
f 46/46/16 47/47/16 48/48/16
f 49/49/17 50/50/17 51/51/17
f 52/52/18 53/53/18 54/54/18
f 55/55/19 56/56/19 57/57/19
f 58/58/20 59/59/20 60/60/20
f 61/61/21 62/62/21 63/63/21
f 64/64/22 65/65/22 66/66/22
f 67/67/23 68/68/23 69/69/23
f 70/70/24 71/71/24 72/72/24
f 73/73/25 74/74/25 75/75/25
f 76/76/26 77/77/26 78/78/26
f 79/79/27 80/80/27 81/81/27
f 82/82/28 83/83/28 84/84/28
f 85/85/29 86/86/29 87/87/29
f 88/88/30 89/89/30 90/90/30
f 91/91/31 92/92/31 93/93/31
f 94/94/32 95/95/32 96/96/32
f 97/97/33 98/98/33 99/99/33
f 100/100/34 101/101/34 102/102/34
f 103/103/35 104/104/35 105/105/35
f 106/106/36 107/107/36 108/108/36
f 109/109/37 110/110/37 111/111/37
f 112/112/38 113/113/38 114/114/38
f 115/115/39 116/116/39 117/117/39
f 118/118/40 119/119/40 120/120/40
f 121/121/41 122/122/41 123/123/41
f 124/124/42 125/125/42 126/126/42
f 127/127/43 128/128/43 129/129/43
f 130/130/44 131/131/44 132/132/44
f 133/133/45 134/134/45 135/135/45
f 136/136/46 137/137/46 138/138/46
f 139/139/47 140/140/47 141/141/47
f 142/142/48 143/143/48 144/144/48
f 145/145/49 146/146/49 147/147/49
f 148/148/50 149/149/50 150/150/50
f 151/151/51 152/152/51 153/153/51
f 154/154/52 155/155/52 156/156/52
f 157/157/53 158/158/53 159/159/53
f 160/160/54 161/161/54 162/162/54
f 163/163/55 164/164/55 165/165/55
f 166/166/56 167/167/56 168/168/56
f 169/169/57 170/170/57 171/171/57
f 172/172/58 173/173/58 174/174/58
f 175/175/59 176/176/59 177/177/59
f 178/178/60 179/179/60 180/180/60
f 181/181/61 182/182/61 183/183/61
f 184/184/62 185/185/62 186/186/62
f 187/187/63 188/188/63 189/189/63
f 190/190/64 191/191/64 192/192/64
f 193/193/65 194/194/65 195/195/65
f 196/196/66 197/197/66 198/198/66
f 199/199/67 200/200/67 201/201/67
f 202/202/68 203/203/68 204/204/68
f 205/205/69 206/206/69 207/207/69
f 208/208/70 209/209/70 210/210/70
f 211/211/71 212/212/71 213/213/71
f 214/214/72 215/215/72 216/216/72
f 217/217/73 218/218/73 219/219/73
f 220/220/74 221/221/74 222/222/74
f 223/223/75 224/224/75 225/225/75
f 226/226/76 227/227/76 228/228/76
f 229/229/77 230/230/77 231/231/77
f 232/232/78 233/233/78 234/234/78
f 235/235/79 236/236/79 237/237/79
f 238/238/80 239/239/80 240/240/80
