# Original OUTLAND Verda starter kit; metres; Y-up; front -Z; origin ground centre
mtllib palette.mtl
o tree_tall_lod1
usemtl verda_palette
s off
v 0.349668 -0.015240 0.000000
v 0.174834 -0.007620 -0.303109
v 0.259924 4.126517 -0.138564
v 0.349668 -0.015240 0.000000
v 0.259924 4.126517 -0.138564
v 0.339848 4.123033 0.000000
v 0.000000 0.000000 0.000000
v 0.174834 -0.007620 -0.303109
v 0.349668 -0.015240 0.000000
v 0.180000 4.130000 0.000000
v 0.339848 4.123033 0.000000
v 0.259924 4.126517 -0.138564
v 0.174834 -0.007620 -0.303109
v -0.174834 0.007620 -0.303109
v 0.100076 4.133483 -0.138564
v 0.174834 -0.007620 -0.303109
v 0.100076 4.133483 -0.138564
v 0.259924 4.126517 -0.138564
v 0.000000 0.000000 0.000000
v -0.174834 0.007620 -0.303109
v 0.174834 -0.007620 -0.303109
v 0.180000 4.130000 0.000000
v 0.259924 4.126517 -0.138564
v 0.100076 4.133483 -0.138564
v -0.174834 0.007620 -0.303109
v -0.349668 0.015240 -0.000000
v 0.020152 4.136967 -0.000000
v -0.174834 0.007620 -0.303109
v 0.020152 4.136967 -0.000000
v 0.100076 4.133483 -0.138564
v 0.000000 0.000000 0.000000
v -0.349668 0.015240 -0.000000
v -0.174834 0.007620 -0.303109
v 0.180000 4.130000 0.000000
v 0.100076 4.133483 -0.138564
v 0.020152 4.136967 -0.000000
v -0.349668 0.015240 -0.000000
v -0.174834 0.007620 0.303109
v 0.100076 4.133483 0.138564
v -0.349668 0.015240 -0.000000
v 0.100076 4.133483 0.138564
v 0.020152 4.136967 -0.000000
v 0.000000 0.000000 0.000000
v -0.174834 0.007620 0.303109
v -0.349668 0.015240 -0.000000
v 0.180000 4.130000 0.000000
v 0.020152 4.136967 -0.000000
v 0.100076 4.133483 0.138564
v -0.174834 0.007620 0.303109
v 0.174834 -0.007620 0.303109
v 0.259924 4.126517 0.138564
v -0.174834 0.007620 0.303109
v 0.259924 4.126517 0.138564
v 0.100076 4.133483 0.138564
v 0.000000 0.000000 0.000000
v 0.174834 -0.007620 0.303109
v -0.174834 0.007620 0.303109
v 0.180000 4.130000 0.000000
v 0.100076 4.133483 0.138564
v 0.259924 4.126517 0.138564
v 0.174834 -0.007620 0.303109
v 0.349668 -0.015240 0.000000
v 0.339848 4.123033 0.000000
v 0.174834 -0.007620 0.303109
v 0.339848 4.123033 0.000000
v 0.259924 4.126517 0.138564
v 0.000000 0.000000 0.000000
v 0.349668 -0.015240 0.000000
v 0.174834 -0.007620 0.303109
v 0.180000 4.130000 0.000000
v 0.259924 4.126517 0.138564
v 0.339848 4.123033 0.000000
v 0.000000 6.552000 0.000000
v 0.565685 6.153665 0.979796
v 1.131371 6.153665 0.000000
v 0.000000 3.832000 0.000000
v 1.131371 4.230335 0.000000
v 0.565685 4.230335 0.979796
v 0.000000 6.552000 0.000000
v -0.565685 6.153665 0.979796
v 0.565685 6.153665 0.979796
v 0.000000 3.832000 0.000000
v 0.565685 4.230335 0.979796
v -0.565685 4.230335 0.979796
v 0.000000 6.552000 0.000000
v -1.131371 6.153665 0.000000
v -0.565685 6.153665 0.979796
v 0.000000 3.832000 0.000000
v -0.565685 4.230335 0.979796
v -1.131371 4.230335 0.000000
v 0.000000 6.552000 0.000000
v -0.565685 6.153665 -0.979796
v -1.131371 6.153665 0.000000
v 0.000000 3.832000 0.000000
v -1.131371 4.230335 0.000000
v -0.565685 4.230335 -0.979796
v 0.000000 6.552000 0.000000
v 0.565685 6.153665 -0.979796
v -0.565685 6.153665 -0.979796
v 0.000000 3.832000 0.000000
v -0.565685 4.230335 -0.979796
v 0.565685 4.230335 -0.979796
v 0.000000 6.552000 0.000000
v 1.131371 6.153665 0.000000
v 0.565685 6.153665 -0.979796
v 0.000000 3.832000 0.000000
v 0.565685 4.230335 -0.979796
v 1.131371 4.230335 0.000000
v 1.131371 6.153665 0.000000
v 0.565685 6.153665 0.979796
v 0.800000 5.192000 1.385641
v 1.131371 6.153665 0.000000
v 0.800000 5.192000 1.385641
v 1.600000 5.192000 0.000000
v 0.565685 6.153665 0.979796
v -0.565685 6.153665 0.979796
v -0.800000 5.192000 1.385641
v 0.565685 6.153665 0.979796
v -0.800000 5.192000 1.385641
v 0.800000 5.192000 1.385641
v -0.565685 6.153665 0.979796
v -1.131371 6.153665 0.000000
v -1.600000 5.192000 0.000000
v -0.565685 6.153665 0.979796
v -1.600000 5.192000 0.000000
v -0.800000 5.192000 1.385641
v -1.131371 6.153665 0.000000
v -0.565685 6.153665 -0.979796
v -0.800000 5.192000 -1.385641
v -1.131371 6.153665 0.000000
v -0.800000 5.192000 -1.385641
v -1.600000 5.192000 0.000000
v -0.565685 6.153665 -0.979796
v 0.565685 6.153665 -0.979796
v 0.800000 5.192000 -1.385641
v -0.565685 6.153665 -0.979796
v 0.800000 5.192000 -1.385641
v -0.800000 5.192000 -1.385641
v 0.565685 6.153665 -0.979796
v 1.131371 6.153665 0.000000
v 1.600000 5.192000 0.000000
v 0.565685 6.153665 -0.979796
v 1.600000 5.192000 0.000000
v 0.800000 5.192000 -1.385641
v 1.600000 5.192000 0.000000
v 0.800000 5.192000 1.385641
v 0.565685 4.230335 0.979796
v 1.600000 5.192000 0.000000
v 0.565685 4.230335 0.979796
v 1.131371 4.230335 0.000000
v 0.800000 5.192000 1.385641
v -0.800000 5.192000 1.385641
v -0.565685 4.230335 0.979796
v 0.800000 5.192000 1.385641
v -0.565685 4.230335 0.979796
v 0.565685 4.230335 0.979796
v -0.800000 5.192000 1.385641
v -1.600000 5.192000 0.000000
v -1.131371 4.230335 0.000000
v -0.800000 5.192000 1.385641
v -1.131371 4.230335 0.000000
v -0.565685 4.230335 0.979796
v -1.600000 5.192000 0.000000
v -0.800000 5.192000 -1.385641
v -0.565685 4.230335 -0.979796
v -1.600000 5.192000 0.000000
v -0.565685 4.230335 -0.979796
v -1.131371 4.230335 0.000000
v -0.800000 5.192000 -1.385641
v 0.800000 5.192000 -1.385641
v 0.565685 4.230335 -0.979796
v -0.800000 5.192000 -1.385641
v 0.565685 4.230335 -0.979796
v -0.565685 4.230335 -0.979796
v 0.800000 5.192000 -1.385641
v 1.600000 5.192000 0.000000
v 1.131371 4.230335 0.000000
v 0.800000 5.192000 -1.385641
v 1.131371 4.230335 0.000000
v 0.565685 4.230335 -0.979796
v -1.000000 5.310500 0.350000
v -0.558058 4.999301 1.115466
v -0.116117 4.999301 0.350000
v -1.000000 3.185500 0.350000
v -0.116117 3.496699 0.350000
v -0.558058 3.496699 1.115466
v -1.000000 5.310500 0.350000
v -1.441942 4.999301 1.115466
v -0.558058 4.999301 1.115466
v -1.000000 3.185500 0.350000
v -0.558058 3.496699 1.115466
v -1.441942 3.496699 1.115466
v -1.000000 5.310500 0.350000
v -1.883883 4.999301 0.350000
v -1.441942 4.999301 1.115466
v -1.000000 3.185500 0.350000
v -1.441942 3.496699 1.115466
v -1.883883 3.496699 0.350000
v -1.000000 5.310500 0.350000
v -1.441942 4.999301 -0.415466
v -1.883883 4.999301 0.350000
v -1.000000 3.185500 0.350000
v -1.883883 3.496699 0.350000
v -1.441942 3.496699 -0.415466
v -1.000000 5.310500 0.350000
v -0.558058 4.999301 -0.415466
v -1.441942 4.999301 -0.415466
v -1.000000 3.185500 0.350000
v -1.441942 3.496699 -0.415466
v -0.558058 3.496699 -0.415466
v -1.000000 5.310500 0.350000
v -0.116117 4.999301 0.350000
v -0.558058 4.999301 -0.415466
v -1.000000 3.185500 0.350000
v -0.558058 3.496699 -0.415466
v -0.116117 3.496699 0.350000
v -0.116117 4.999301 0.350000
v -0.558058 4.999301 1.115466
v -0.375000 4.248000 1.432532
v -0.116117 4.999301 0.350000
v -0.375000 4.248000 1.432532
v 0.250000 4.248000 0.350000
v -0.558058 4.999301 1.115466
v -1.441942 4.999301 1.115466
v -1.625000 4.248000 1.432532
v -0.558058 4.999301 1.115466
v -1.625000 4.248000 1.432532
v -0.375000 4.248000 1.432532
v -1.441942 4.999301 1.115466
v -1.883883 4.999301 0.350000
v -2.250000 4.248000 0.350000
v -1.441942 4.999301 1.115466
v -2.250000 4.248000 0.350000
v -1.625000 4.248000 1.432532
v -1.883883 4.999301 0.350000
v -1.441942 4.999301 -0.415466
v -1.625000 4.248000 -0.732532
v -1.883883 4.999301 0.350000
v -1.625000 4.248000 -0.732532
v -2.250000 4.248000 0.350000
v -1.441942 4.999301 -0.415466
v -0.558058 4.999301 -0.415466
v -0.375000 4.248000 -0.732532
v -1.441942 4.999301 -0.415466
v -0.375000 4.248000 -0.732532
v -1.625000 4.248000 -0.732532
v -0.558058 4.999301 -0.415466
v -0.116117 4.999301 0.350000
v 0.250000 4.248000 0.350000
v -0.558058 4.999301 -0.415466
v 0.250000 4.248000 0.350000
v -0.375000 4.248000 -0.732532
v 0.250000 4.248000 0.350000
v -0.375000 4.248000 1.432532
v -0.558058 3.496699 1.115466
v 0.250000 4.248000 0.350000
v -0.558058 3.496699 1.115466
v -0.116117 3.496699 0.350000
v -0.375000 4.248000 1.432532
v -1.625000 4.248000 1.432532
v -1.441942 3.496699 1.115466
v -0.375000 4.248000 1.432532
v -1.441942 3.496699 1.115466
v -0.558058 3.496699 1.115466
v -1.625000 4.248000 1.432532
v -2.250000 4.248000 0.350000
v -1.883883 3.496699 0.350000
v -1.625000 4.248000 1.432532
v -1.883883 3.496699 0.350000
v -1.441942 3.496699 1.115466
v -2.250000 4.248000 0.350000
v -1.625000 4.248000 -0.732532
v -1.441942 3.496699 -0.415466
v -2.250000 4.248000 0.350000
v -1.441942 3.496699 -0.415466
v -1.883883 3.496699 0.350000
v -1.625000 4.248000 -0.732532
v -0.375000 4.248000 -0.732532
v -0.558058 3.496699 -0.415466
v -1.625000 4.248000 -0.732532
v -0.558058 3.496699 -0.415466
v -1.441942 3.496699 -0.415466
v -0.375000 4.248000 -0.732532
v 0.250000 4.248000 0.350000
v -0.116117 3.496699 0.350000
v -0.375000 4.248000 -0.732532
v -0.116117 3.496699 0.350000
v -0.558058 3.496699 -0.415466
vt 0.125000 0.625000
vt 0.125000 0.625000
vt 0.125000 0.625000
vt 0.125000 0.625000
vt 0.125000 0.625000
vt 0.125000 0.625000
vt 0.125000 0.625000
vt 0.125000 0.625000
vt 0.125000 0.625000
vt 0.125000 0.625000
vt 0.125000 0.625000
vt 0.125000 0.625000
vt 0.125000 0.625000
vt 0.125000 0.625000
vt 0.125000 0.625000
vt 0.125000 0.625000
vt 0.125000 0.625000
vt 0.125000 0.625000
vt 0.125000 0.625000
vt 0.125000 0.625000
vt 0.125000 0.625000
vt 0.125000 0.625000
vt 0.125000 0.625000
vt 0.125000 0.625000
vt 0.125000 0.625000
vt 0.125000 0.625000
vt 0.125000 0.625000
vt 0.125000 0.625000
vt 0.125000 0.625000
vt 0.125000 0.625000
vt 0.125000 0.625000
vt 0.125000 0.625000
vt 0.125000 0.625000
vt 0.125000 0.625000
vt 0.125000 0.625000
vt 0.125000 0.625000
vt 0.125000 0.625000
vt 0.125000 0.625000
vt 0.125000 0.625000
vt 0.125000 0.625000
vt 0.125000 0.625000
vt 0.125000 0.625000
vt 0.125000 0.625000
vt 0.125000 0.625000
vt 0.125000 0.625000
vt 0.125000 0.625000
vt 0.125000 0.625000
vt 0.125000 0.625000
vt 0.125000 0.625000
vt 0.125000 0.625000
vt 0.125000 0.625000
vt 0.125000 0.625000
vt 0.125000 0.625000
vt 0.125000 0.625000
vt 0.125000 0.625000
vt 0.125000 0.625000
vt 0.125000 0.625000
vt 0.125000 0.625000
vt 0.125000 0.625000
vt 0.125000 0.625000
vt 0.125000 0.625000
vt 0.125000 0.625000
vt 0.125000 0.625000
vt 0.125000 0.625000
vt 0.125000 0.625000
vt 0.125000 0.625000
vt 0.125000 0.625000
vt 0.125000 0.625000
vt 0.125000 0.625000
vt 0.125000 0.625000
vt 0.125000 0.625000
vt 0.125000 0.625000
vt 0.375000 0.875000
vt 0.375000 0.875000
vt 0.375000 0.875000
vt 0.375000 0.875000
vt 0.375000 0.875000
vt 0.375000 0.875000
vt 0.375000 0.875000
vt 0.375000 0.875000
vt 0.375000 0.875000
vt 0.375000 0.875000
vt 0.375000 0.875000
vt 0.375000 0.875000
vt 0.375000 0.875000
vt 0.375000 0.875000
vt 0.375000 0.875000
vt 0.375000 0.875000
vt 0.375000 0.875000
vt 0.375000 0.875000
vt 0.375000 0.875000
vt 0.375000 0.875000
vt 0.375000 0.875000
vt 0.375000 0.875000
vt 0.375000 0.875000
vt 0.375000 0.875000
vt 0.375000 0.875000
vt 0.375000 0.875000
vt 0.375000 0.875000
vt 0.375000 0.875000
vt 0.375000 0.875000
vt 0.375000 0.875000
vt 0.375000 0.875000
vt 0.375000 0.875000
vt 0.375000 0.875000
vt 0.375000 0.875000
vt 0.375000 0.875000
vt 0.375000 0.875000
vt 0.375000 0.875000
vt 0.375000 0.875000
vt 0.375000 0.875000
vt 0.375000 0.875000
vt 0.375000 0.875000
vt 0.375000 0.875000
vt 0.375000 0.875000
vt 0.375000 0.875000
vt 0.375000 0.875000
vt 0.375000 0.875000
vt 0.375000 0.875000
vt 0.375000 0.875000
vt 0.375000 0.875000
vt 0.375000 0.875000
vt 0.375000 0.875000
vt 0.375000 0.875000
vt 0.375000 0.875000
vt 0.375000 0.875000
vt 0.375000 0.875000
vt 0.375000 0.875000
vt 0.375000 0.875000
vt 0.375000 0.875000
vt 0.375000 0.875000
vt 0.375000 0.875000
vt 0.375000 0.875000
vt 0.375000 0.875000
vt 0.375000 0.875000
vt 0.375000 0.875000
vt 0.375000 0.875000
vt 0.375000 0.875000
vt 0.375000 0.875000
vt 0.375000 0.875000
vt 0.375000 0.875000
vt 0.375000 0.875000
vt 0.375000 0.875000
vt 0.375000 0.875000
vt 0.375000 0.875000
vt 0.375000 0.875000
vt 0.375000 0.875000
vt 0.375000 0.875000
vt 0.375000 0.875000
vt 0.375000 0.875000
vt 0.375000 0.875000
vt 0.375000 0.875000
vt 0.375000 0.875000
vt 0.375000 0.875000
vt 0.375000 0.875000
vt 0.375000 0.875000
vt 0.375000 0.875000
vt 0.375000 0.875000
vt 0.375000 0.875000
vt 0.375000 0.875000
vt 0.375000 0.875000
vt 0.375000 0.875000
vt 0.375000 0.875000
vt 0.375000 0.875000
vt 0.375000 0.875000
vt 0.375000 0.875000
vt 0.375000 0.875000
vt 0.375000 0.875000
vt 0.375000 0.875000
vt 0.375000 0.875000
vt 0.375000 0.875000
vt 0.375000 0.875000
vt 0.375000 0.875000
vt 0.375000 0.875000
vt 0.375000 0.875000
vt 0.375000 0.875000
vt 0.375000 0.875000
vt 0.375000 0.875000
vt 0.375000 0.875000
vt 0.375000 0.875000
vt 0.875000 0.875000
vt 0.875000 0.875000
vt 0.875000 0.875000
vt 0.875000 0.875000
vt 0.875000 0.875000
vt 0.875000 0.875000
vt 0.875000 0.875000
vt 0.875000 0.875000
vt 0.875000 0.875000
vt 0.875000 0.875000
vt 0.875000 0.875000
vt 0.875000 0.875000
vt 0.875000 0.875000
vt 0.875000 0.875000
vt 0.875000 0.875000
vt 0.875000 0.875000
vt 0.875000 0.875000
vt 0.875000 0.875000
vt 0.875000 0.875000
vt 0.875000 0.875000
vt 0.875000 0.875000
vt 0.875000 0.875000
vt 0.875000 0.875000
vt 0.875000 0.875000
vt 0.875000 0.875000
vt 0.875000 0.875000
vt 0.875000 0.875000
vt 0.875000 0.875000
vt 0.875000 0.875000
vt 0.875000 0.875000
vt 0.875000 0.875000
vt 0.875000 0.875000
vt 0.875000 0.875000
vt 0.875000 0.875000
vt 0.875000 0.875000
vt 0.875000 0.875000
vt 0.875000 0.875000
vt 0.875000 0.875000
vt 0.875000 0.875000
vt 0.875000 0.875000
vt 0.875000 0.875000
vt 0.875000 0.875000
vt 0.875000 0.875000
vt 0.875000 0.875000
vt 0.875000 0.875000
vt 0.875000 0.875000
vt 0.875000 0.875000
vt 0.875000 0.875000
vt 0.875000 0.875000
vt 0.875000 0.875000
vt 0.875000 0.875000
vt 0.875000 0.875000
vt 0.875000 0.875000
vt 0.875000 0.875000
vt 0.875000 0.875000
vt 0.875000 0.875000
vt 0.875000 0.875000
vt 0.875000 0.875000
vt 0.875000 0.875000
vt 0.875000 0.875000
vt 0.875000 0.875000
vt 0.875000 0.875000
vt 0.875000 0.875000
vt 0.875000 0.875000
vt 0.875000 0.875000
vt 0.875000 0.875000
vt 0.875000 0.875000
vt 0.875000 0.875000
vt 0.875000 0.875000
vt 0.875000 0.875000
vt 0.875000 0.875000
vt 0.875000 0.875000
vt 0.875000 0.875000
vt 0.875000 0.875000
vt 0.875000 0.875000
vt 0.875000 0.875000
vt 0.875000 0.875000
vt 0.875000 0.875000
vt 0.875000 0.875000
vt 0.875000 0.875000
vt 0.875000 0.875000
vt 0.875000 0.875000
vt 0.875000 0.875000
vt 0.875000 0.875000
vt 0.875000 0.875000
vt 0.875000 0.875000
vt 0.875000 0.875000
vt 0.875000 0.875000
vt 0.875000 0.875000
vt 0.875000 0.875000
vt 0.875000 0.875000
vt 0.875000 0.875000
vt 0.875000 0.875000
vt 0.875000 0.875000
vt 0.875000 0.875000
vt 0.875000 0.875000
vt 0.875000 0.875000
vt 0.875000 0.875000
vt 0.875000 0.875000
vt 0.875000 0.875000
vt 0.875000 0.875000
vt 0.875000 0.875000
vt 0.875000 0.875000
vt 0.875000 0.875000
vt 0.875000 0.875000
vt 0.875000 0.875000
vt 0.875000 0.875000
vt 0.875000 0.875000
vn 0.866251 0.002056 -0.499604
vn 0.866251 0.002056 -0.499604
vn -0.043542 -0.999052 -0.000000
vn 0.043542 0.999052 -0.000000
vn 0.001732 0.039734 -0.999209
vn 0.001732 0.039734 -0.999209
vn -0.043542 -0.999052 0.000000
vn 0.043542 0.999052 0.000000
vn -0.862788 0.077413 -0.499604
vn -0.862788 0.077413 -0.499604
vn -0.043542 -0.999052 0.000000
vn 0.043542 0.999052 0.000000
vn -0.862788 0.077413 0.499604
vn -0.862788 0.077413 0.499604
vn -0.043542 -0.999052 0.000000
vn 0.043542 0.999052 -0.000000
vn 0.001732 0.039734 0.999209
vn 0.001732 0.039734 0.999209
vn -0.043542 -0.999052 0.000000
vn 0.043542 0.999052 0.000000
vn 0.866251 0.002056 0.499604
vn 0.866251 0.002056 0.499604
vn -0.043542 -0.999052 0.000000
vn 0.043542 0.999052 0.000000
vn 0.326158 0.926370 0.188307
vn 0.326158 -0.926370 0.188307
vn 0.000000 0.926370 0.376615
vn 0.000000 -0.926370 0.376615
vn -0.326158 0.926370 0.188307
vn -0.326158 -0.926370 0.188307
vn -0.326158 0.926370 -0.188307
vn -0.326158 -0.926370 -0.188307
vn -0.000000 0.926370 -0.376615
vn -0.000000 -0.926370 -0.376615
vn 0.326158 0.926370 -0.188307
vn 0.326158 -0.926370 -0.188307
vn 0.797883 0.388816 0.460658
vn 0.797883 0.388816 0.460658
vn 0.000000 0.388816 0.921315
vn 0.000000 0.388816 0.921315
vn -0.797883 0.388816 0.460658
vn -0.797883 0.388816 0.460658
vn -0.797883 0.388816 -0.460658
vn -0.797883 0.388816 -0.460658
vn -0.000000 0.388816 -0.921315
vn -0.000000 0.388816 -0.921315
vn 0.797883 0.388816 -0.460658
vn 0.797883 0.388816 -0.460658
vn 0.797883 -0.388816 0.460658
vn 0.797883 -0.388816 0.460658
vn 0.000000 -0.388816 0.921315
vn 0.000000 -0.388816 0.921315
vn -0.797883 -0.388816 0.460658
vn -0.797883 -0.388816 0.460658
vn -0.797883 -0.388816 -0.460658
vn -0.797883 -0.388816 -0.460658
vn -0.000000 -0.388816 -0.921315
vn -0.000000 -0.388816 -0.921315
vn 0.797883 -0.388816 -0.460658
vn 0.797883 -0.388816 -0.460658
vn 0.326158 0.926370 0.188307
vn 0.326158 -0.926370 0.188307
vn 0.000000 0.926370 0.376615
vn 0.000000 -0.926370 0.376615
vn -0.326158 0.926370 0.188307
vn -0.326158 -0.926370 0.188307
vn -0.326158 0.926370 -0.188307
vn -0.326158 -0.926370 -0.188307
vn -0.000000 0.926370 -0.376615
vn -0.000000 -0.926370 -0.376615
vn 0.326158 0.926370 -0.188307
vn 0.326158 -0.926370 -0.188307
vn 0.797883 0.388816 0.460658
vn 0.797883 0.388816 0.460658
vn 0.000000 0.388816 0.921315
vn 0.000000 0.388816 0.921315
vn -0.797883 0.388816 0.460658
vn -0.797883 0.388816 0.460658
vn -0.797883 0.388816 -0.460658
vn -0.797883 0.388816 -0.460658
vn -0.000000 0.388816 -0.921315
vn 0.000000 0.388816 -0.921315
vn 0.797883 0.388816 -0.460658
vn 0.797883 0.388816 -0.460658
vn 0.797883 -0.388816 0.460658
vn 0.797883 -0.388816 0.460658
vn 0.000000 -0.388816 0.921315
vn 0.000000 -0.388816 0.921315
vn -0.797883 -0.388816 0.460658
vn -0.797883 -0.388816 0.460658
vn -0.797883 -0.388816 -0.460658
vn -0.797883 -0.388816 -0.460658
vn 0.000000 -0.388816 -0.921315
vn -0.000000 -0.388816 -0.921315
vn 0.797883 -0.388816 -0.460658
vn 0.797883 -0.388816 -0.460658
f 1/1/1 2/2/1 3/3/1
f 4/4/2 5/5/2 6/6/2
f 7/7/3 8/8/3 9/9/3
f 10/10/4 11/11/4 12/12/4
f 13/13/5 14/14/5 15/15/5
f 16/16/6 17/17/6 18/18/6
f 19/19/7 20/20/7 21/21/7
f 22/22/8 23/23/8 24/24/8
f 25/25/9 26/26/9 27/27/9
f 28/28/10 29/29/10 30/30/10
f 31/31/11 32/32/11 33/33/11
f 34/34/12 35/35/12 36/36/12
f 37/37/13 38/38/13 39/39/13
f 40/40/14 41/41/14 42/42/14
f 43/43/15 44/44/15 45/45/15
f 46/46/16 47/47/16 48/48/16
f 49/49/17 50/50/17 51/51/17
f 52/52/18 53/53/18 54/54/18
f 55/55/19 56/56/19 57/57/19
f 58/58/20 59/59/20 60/60/20
f 61/61/21 62/62/21 63/63/21
f 64/64/22 65/65/22 66/66/22
f 67/67/23 68/68/23 69/69/23
f 70/70/24 71/71/24 72/72/24
f 73/73/25 74/74/25 75/75/25
f 76/76/26 77/77/26 78/78/26
f 79/79/27 80/80/27 81/81/27
f 82/82/28 83/83/28 84/84/28
f 85/85/29 86/86/29 87/87/29
f 88/88/30 89/89/30 90/90/30
f 91/91/31 92/92/31 93/93/31
f 94/94/32 95/95/32 96/96/32
f 97/97/33 98/98/33 99/99/33
f 100/100/34 101/101/34 102/102/34
f 103/103/35 104/104/35 105/105/35
f 106/106/36 107/107/36 108/108/36
f 109/109/37 110/110/37 111/111/37
f 112/112/38 113/113/38 114/114/38
f 115/115/39 116/116/39 117/117/39
f 118/118/40 119/119/40 120/120/40
f 121/121/41 122/122/41 123/123/41
f 124/124/42 125/125/42 126/126/42
f 127/127/43 128/128/43 129/129/43
f 130/130/44 131/131/44 132/132/44
f 133/133/45 134/134/45 135/135/45
f 136/136/46 137/137/46 138/138/46
f 139/139/47 140/140/47 141/141/47
f 142/142/48 143/143/48 144/144/48
f 145/145/49 146/146/49 147/147/49
f 148/148/50 149/149/50 150/150/50
f 151/151/51 152/152/51 153/153/51
f 154/154/52 155/155/52 156/156/52
f 157/157/53 158/158/53 159/159/53
f 160/160/54 161/161/54 162/162/54
f 163/163/55 164/164/55 165/165/55
f 166/166/56 167/167/56 168/168/56
f 169/169/57 170/170/57 171/171/57
f 172/172/58 173/173/58 174/174/58
f 175/175/59 176/176/59 177/177/59
f 178/178/60 179/179/60 180/180/60
f 181/181/61 182/182/61 183/183/61
f 184/184/62 185/185/62 186/186/62
f 187/187/63 188/188/63 189/189/63
f 190/190/64 191/191/64 192/192/64
f 193/193/65 194/194/65 195/195/65
f 196/196/66 197/197/66 198/198/66
f 199/199/67 200/200/67 201/201/67
f 202/202/68 203/203/68 204/204/68
f 205/205/69 206/206/69 207/207/69
f 208/208/70 209/209/70 210/210/70
f 211/211/71 212/212/71 213/213/71
f 214/214/72 215/215/72 216/216/72
f 217/217/73 218/218/73 219/219/73
f 220/220/74 221/221/74 222/222/74
f 223/223/75 224/224/75 225/225/75
f 226/226/76 227/227/76 228/228/76
f 229/229/77 230/230/77 231/231/77
f 232/232/78 233/233/78 234/234/78
f 235/235/79 236/236/79 237/237/79
f 238/238/80 239/239/80 240/240/80
f 241/241/81 242/242/81 243/243/81
f 244/244/82 245/245/82 246/246/82
f 247/247/83 248/248/83 249/249/83
f 250/250/84 251/251/84 252/252/84
f 253/253/85 254/254/85 255/255/85
f 256/256/86 257/257/86 258/258/86
f 259/259/87 260/260/87 261/261/87
f 262/262/88 263/263/88 264/264/88
f 265/265/89 266/266/89 267/267/89
f 268/268/90 269/269/90 270/270/90
f 271/271/91 272/272/91 273/273/91
f 274/274/92 275/275/92 276/276/92
f 277/277/93 278/278/93 279/279/93
f 280/280/94 281/281/94 282/282/94
f 283/283/95 284/284/95 285/285/95
f 286/286/96 287/287/96 288/288/96
