# Original OUTLAND Verda starter kit; metres; Y-up; front -Z; origin ground centre
mtllib palette.mtl
o weed_lod1
usemtl verda_palette
s off
v -0.139496 0.000000 0.000942
v -0.089496 0.000000 0.000942
v -0.126988 0.910281 0.040942
v -0.126988 0.910281 0.040942
v -0.089496 0.000000 0.000942
v -0.139496 0.000000 0.000942
v 0.020103 0.000000 -0.005617
v 0.070103 0.000000 -0.005617
v -0.050183 0.884845 0.034383
v -0.050183 0.884845 0.034383
v 0.070103 0.000000 -0.005617
v 0.020103 0.000000 -0.005617
v -0.227595 0.000000 -0.107755
v -0.177595 0.000000 -0.107755
v -0.354464 1.028899 -0.067755
v -0.354464 1.028899 -0.067755
v -0.177595 0.000000 -0.107755
v -0.227595 0.000000 -0.107755
v -0.101863 0.000000 -0.034162
v -0.051863 0.000000 -0.034162
v -0.098134 0.904183 0.005838
v -0.098134 0.904183 0.005838
v -0.051863 0.000000 -0.034162
v -0.101863 0.000000 -0.034162
vt 0.625000 0.875000
vt 0.625000 0.875000
vt 0.625000 0.875000
vt 0.625000 0.875000
vt 0.625000 0.875000
vt 0.625000 0.875000
vt 0.125000 0.875000
vt 0.125000 0.875000
vt 0.125000 0.875000
vt 0.125000 0.875000
vt 0.125000 0.875000
vt 0.125000 0.875000
vt 0.125000 0.875000
vt 0.125000 0.875000
vt 0.125000 0.875000
vt 0.125000 0.875000
vt 0.125000 0.875000
vt 0.125000 0.875000
vt 0.625000 0.875000
vt 0.625000 0.875000
vt 0.625000 0.875000
vt 0.625000 0.875000
vt 0.625000 0.875000
vt 0.625000 0.875000
vn 0.000000 -0.043900 0.999036
vn 0.000000 0.043900 -0.999036
vn 0.000000 -0.045160 0.998980
vn 0.000000 0.045160 -0.998980
vn 0.000000 -0.038847 0.999245
vn 0.000000 0.038847 -0.999245
vn 0.000000 -0.044196 0.999023
vn 0.000000 0.044196 -0.999023
f 1/1/1 2/2/1 3/3/1
f 4/4/2 5/5/2 6/6/2
f 7/7/3 8/8/3 9/9/3
f 10/10/4 11/11/4 12/12/4
f 13/13/5 14/14/5 15/15/5
f 16/16/6 17/17/6 18/18/6
f 19/19/7 20/20/7 21/21/7
f 22/22/8 23/23/8 24/24/8
