# Original OUTLAND Verda starter kit; metres; Y-up; front -Z; origin ground centre
mtllib palette.mtl
o weed_lod0
usemtl verda_palette
s off
v -0.139496 0.000000 0.000942
v -0.089496 0.000000 0.000942
v -0.126988 0.910281 0.040942
v -0.126988 0.910281 0.040942
v -0.089496 0.000000 0.000942
v -0.139496 0.000000 0.000942
v 0.020103 0.000000 -0.005617
v 0.070103 0.000000 -0.005617
v -0.050183 0.884845 0.034383
v -0.050183 0.884845 0.034383
v 0.070103 0.000000 -0.005617
v 0.020103 0.000000 -0.005617
v -0.227595 0.000000 -0.107755
v -0.177595 0.000000 -0.107755
v -0.354464 1.028899 -0.067755
v -0.354464 1.028899 -0.067755
v -0.177595 0.000000 -0.107755
v -0.227595 0.000000 -0.107755
v -0.101863 0.000000 -0.034162
v -0.051863 0.000000 -0.034162
v -0.098134 0.904183 0.005838
v -0.098134 0.904183 0.005838
v -0.051863 0.000000 -0.034162
v -0.101863 0.000000 -0.034162
v 0.159813 0.000000 0.192403
v 0.209813 0.000000 0.192403
v 0.089607 0.912789 0.232403
v 0.089607 0.912789 0.232403
v 0.209813 0.000000 0.192403
v 0.159813 0.000000 0.192403
v 0.170026 0.000000 0.156489
v 0.220026 0.000000 0.156489
v 0.290375 0.855338 0.196489
v 0.290375 0.855338 0.196489
v 0.220026 0.000000 0.156489
v 0.170026 0.000000 0.156489
v 0.174885 0.000000 0.198405
v 0.224885 0.000000 0.198405
v 0.109422 0.725942 0.238405
v 0.109422 0.725942 0.238405
v 0.224885 0.000000 0.198405
v 0.174885 0.000000 0.198405
vt 0.625000 0.875000
vt 0.625000 0.875000
vt 0.625000 0.875000
vt 0.625000 0.875000
vt 0.625000 0.875000
vt 0.625000 0.875000
vt 0.125000 0.875000
vt 0.125000 0.875000
vt 0.125000 0.875000
vt 0.125000 0.875000
vt 0.125000 0.875000
vt 0.125000 0.875000
vt 0.125000 0.875000
vt 0.125000 0.875000
vt 0.125000 0.875000
vt 0.125000 0.875000
vt 0.125000 0.875000
vt 0.125000 0.875000
vt 0.625000 0.875000
vt 0.625000 0.875000
vt 0.625000 0.875000
vt 0.625000 0.875000
vt 0.625000 0.875000
vt 0.625000 0.875000
vt 0.125000 0.875000
vt 0.125000 0.875000
vt 0.125000 0.875000
vt 0.125000 0.875000
vt 0.125000 0.875000
vt 0.125000 0.875000
vt 0.125000 0.875000
vt 0.125000 0.875000
vt 0.125000 0.875000
vt 0.125000 0.875000
vt 0.125000 0.875000
vt 0.125000 0.875000
vt 0.625000 0.875000
vt 0.625000 0.875000
vt 0.625000 0.875000
vt 0.625000 0.875000
vt 0.625000 0.875000
vt 0.625000 0.875000
vn 0.000000 -0.043900 0.999036
vn 0.000000 0.043900 -0.999036
vn 0.000000 -0.045160 0.998980
vn 0.000000 0.045160 -0.998980
vn 0.000000 -0.038847 0.999245
vn 0.000000 0.038847 -0.999245
vn 0.000000 -0.044196 0.999023
vn 0.000000 0.044196 -0.999023
vn 0.000000 -0.043780 0.999041
vn 0.000000 0.043780 -0.999041
vn 0.000000 -0.046714 0.998908
vn 0.000000 0.046714 -0.998908
vn 0.000000 -0.055017 0.998485
vn 0.000000 0.055017 -0.998485
f 1/1/1 2/2/1 3/3/1
f 4/4/2 5/5/2 6/6/2
f 7/7/3 8/8/3 9/9/3
f 10/10/4 11/11/4 12/12/4
f 13/13/5 14/14/5 15/15/5
f 16/16/6 17/17/6 18/18/6
f 19/19/7 20/20/7 21/21/7
f 22/22/8 23/23/8 24/24/8
f 25/25/9 26/26/9 27/27/9
f 28/28/10 29/29/10 30/30/10
f 31/31/11 32/32/11 33/33/11
f 34/34/12 35/35/12 36/36/12
f 37/37/13 38/38/13 39/39/13
f 40/40/14 41/41/14 42/42/14
